<svg xmlns="http://www.w3.org/2000/svg" xmlns:xlink="http://www.w3.org/1999/xlink" contentStyleType="text/css" data-diagram-type="CLASS" height="2208.75px" preserveAspectRatio="none" style="width:2296px;height:2208px;background:#FFFFFF;" version="1.1" viewBox="0 0 2296 2208" width="2296.875px" zoomAndPan="magnify"><title>Identity database | Entity relationships</title><defs/><g><g class="title" data-source-line="2"><text fill="#15324F" font-family="sans-serif" font-size="43.125" font-weight="bold" lengthAdjust="spacing" textLength="788.4842" x="746.6954" y="78.5175">Identity database | Entity relationships</text></g><!--class institution--><g class="entity" data-entity="institution" data-source-line="3" data-uid="ent0002" id="entity_institution"><rect fill="#EEF5F7" height="300.8203" rx="9.375" ry="9.375" style="stroke:#007F86;stroke-width:0.9375;" width="240.6976" x="1669.6875" y="146.1182"/><ellipse cx="1709.6295" cy="187.002" fill="#ADD1B2" rx="18.75" ry="18.75" style="stroke:#181818;stroke-width:1.875;"/><path d="M1708.2525,188.0273 L1708.2525,191.8652 L1714.9615,191.8652 L1714.9615,190.459 Q1714.9615,189.4922 1715.3131,189.1113 Q1715.6939,188.7012 1716.2799,188.7012 Q1716.8365,188.7012 1717.1881,189.1113 Q1717.5689,189.4922 1717.5689,190.459 L1717.5689,194.502 L1705.2057,194.502 Q1704.2682,194.502 1703.858,194.1504 Q1703.4478,193.7695 1703.4478,193.1836 Q1703.4478,192.5977 1703.858,192.2461 Q1704.2682,191.8652 1705.2057,191.8652 L1705.6158,191.8652 L1705.6158,181.582 L1705.2057,181.582 Q1704.2682,181.582 1703.858,181.2305 Q1703.4478,180.8496 1703.4478,180.2637 Q1703.4478,179.6777 1703.858,179.3262 Q1704.2682,178.9453 1705.2057,178.9453 L1717.0123,178.9746 L1717.0123,182.959 Q1717.0123,183.8965 1716.6314,184.3066 Q1716.2799,184.7168 1715.6939,184.7168 Q1715.108,184.7168 1714.7271,184.3359 Q1714.3756,183.9258 1714.3756,182.959 L1714.3756,181.582 L1708.2525,181.582 L1708.2525,185.3906 L1710.567,185.3906 Q1710.567,184.3652 1710.7428,184.0723 Q1711.1529,183.4277 1711.8853,183.4277 Q1712.442,183.4277 1712.7935,183.8379 Q1713.1744,184.248 1713.1744,185.1855 L1713.1744,188.2324 Q1713.1744,189.082 1712.9693,189.375 Q1712.5592,189.9902 1711.8853,189.9902 Q1711.1529,189.9902 1710.7428,189.3457 Q1710.567,189.0527 1710.567,188.0273 L1708.2525,188.0273 Z " fill="#000000"/><text fill="#000000" font-family="sans-serif" font-size="26.25" lengthAdjust="spacing" textLength="124.021" x="1752.0471" y="197.7429">institutions</text><line style="stroke:#007F86;stroke-width:0.9375;" x1="1671.5625" x2="1908.5101" y1="227.8857" y2="227.8857"/><text fill="#000000" font-family="sans-serif" font-size="26.25" lengthAdjust="spacing" textLength="188.1976" x="1695.9375" y="277.6355">*id : UUID &#171;PK&#187;</text><line style="stroke:#007F86;stroke-width:1.875;" x1="1671.5625" x2="1908.5101" y1="305.9033" y2="305.9033"/><text fill="#000000" font-family="sans-serif" font-size="26.25" lengthAdjust="spacing" textLength="65.6635" x="1695.9375" y="355.6531">name</text><text fill="#000000" font-family="sans-serif" font-size="26.25" lengthAdjust="spacing" textLength="148.8611" x="1695.9375" y="418.6707">slug : unique</text></g><!--class user--><g class="entity" data-entity="user" data-source-line="9" data-uid="ent0003" id="entity_user"><rect fill="#EEF5F7" height="678.9258" rx="9.375" ry="9.375" style="stroke:#007F86;stroke-width:0.9375;" width="459.5801" x="1164.375" y="582.9932"/><ellipse cx="1339.5703" cy="623.877" fill="#ADD1B2" rx="18.75" ry="18.75" style="stroke:#181818;stroke-width:1.875;"/><path d="M1338.1934,624.9023 L1338.1934,628.7402 L1344.9023,628.7402 L1344.9023,627.334 Q1344.9023,626.3672 1345.2539,625.9863 Q1345.6348,625.5762 1346.2207,625.5762 Q1346.7773,625.5762 1347.1289,625.9863 Q1347.5098,626.3672 1347.5098,627.334 L1347.5098,631.377 L1335.1465,631.377 Q1334.209,631.377 1333.7988,631.0254 Q1333.3887,630.6445 1333.3887,630.0586 Q1333.3887,629.4727 1333.7988,629.1211 Q1334.209,628.7402 1335.1465,628.7402 L1335.5566,628.7402 L1335.5566,618.457 L1335.1465,618.457 Q1334.209,618.457 1333.7988,618.1055 Q1333.3887,617.7246 1333.3887,617.1387 Q1333.3887,616.5527 1333.7988,616.2012 Q1334.209,615.8203 1335.1465,615.8203 L1346.9531,615.8496 L1346.9531,619.834 Q1346.9531,620.7715 1346.5723,621.1816 Q1346.2207,621.5918 1345.6348,621.5918 Q1345.0488,621.5918 1344.668,621.2109 Q1344.3164,620.8008 1344.3164,619.834 L1344.3164,618.457 L1338.1934,618.457 L1338.1934,622.2656 L1340.5078,622.2656 Q1340.5078,621.2402 1340.6836,620.9473 Q1341.0938,620.3027 1341.8262,620.3027 Q1342.3828,620.3027 1342.7344,620.7129 Q1343.1152,621.123 1343.1152,622.0605 L1343.1152,625.1074 Q1343.1152,625.957 1342.9102,626.25 Q1342.5,626.8652 1341.8262,626.8652 Q1341.0938,626.8652 1340.6836,626.2207 Q1340.5078,625.9277 1340.5078,624.9023 L1338.1934,624.9023 Z " fill="#000000"/><text fill="#000000" font-family="sans-serif" font-size="26.25" lengthAdjust="spacing" textLength="64.1895" x="1390.1953" y="634.6179">users</text><line style="stroke:#007F86;stroke-width:0.9375;" x1="1166.25" x2="1622.0801" y1="664.7607" y2="664.7607"/><text fill="#000000" font-family="sans-serif" font-size="26.25" lengthAdjust="spacing" textLength="188.1976" x="1190.625" y="714.5105">*id : UUID &#171;PK&#187;</text><text fill="#000000" font-family="sans-serif" font-size="26.25" lengthAdjust="spacing" textLength="407.0801" x="1190.625" y="777.5281">institution_id : UUID &#171;FK, nullable&#187;</text><line style="stroke:#007F86;stroke-width:1.875;" x1="1166.25" x2="1622.0801" y1="805.7959" y2="805.7959"/><text fill="#000000" font-family="sans-serif" font-size="26.25" lengthAdjust="spacing" textLength="163.4344" x="1190.625" y="855.5457">email : unique</text><text fill="#000000" font-family="sans-serif" font-size="26.25" lengthAdjust="spacing" textLength="183.8654" x="1190.625" y="918.5632">password_hash</text><text fill="#000000" font-family="sans-serif" font-size="26.25" lengthAdjust="spacing" textLength="113.8184" x="1190.625" y="981.5808">full_name</text><text fill="#000000" font-family="sans-serif" font-size="26.25" lengthAdjust="spacing" textLength="131.3141" x="1190.625" y="1044.5984">role : enum</text><text fill="#000000" font-family="sans-serif" font-size="26.25" lengthAdjust="spacing" textLength="102.1289" x="1190.625" y="1107.616">is_active</text><text fill="#000000" font-family="sans-serif" font-size="26.25" lengthAdjust="spacing" textLength="248.0804" x="1190.625" y="1170.6335">failed_login_attempts</text><text fill="#000000" font-family="sans-serif" font-size="26.25" lengthAdjust="spacing" textLength="138.6328" x="1190.625" y="1233.6511">locked_until</text></g><!--class refresh--><g class="entity" data-entity="refresh" data-source-line="21" data-uid="ent0004" id="entity_refresh"><rect fill="#EEF5F7" height="552.8906" rx="9.375" ry="9.375" style="stroke:#007F86;stroke-width:0.9375;" width="459.5801" x="1824.375" y="1429.5557"/><ellipse cx="1932.4521" cy="1470.4395" fill="#ADD1B2" rx="18.75" ry="18.75" style="stroke:#181818;stroke-width:1.875;"/><path d="M1931.0751,1471.4648 L1931.0751,1475.3027 L1937.7841,1475.3027 L1937.7841,1473.8965 Q1937.7841,1472.9297 1938.1357,1472.5488 Q1938.5165,1472.1387 1939.1025,1472.1387 Q1939.6591,1472.1387 1940.0107,1472.5488 Q1940.3915,1472.9297 1940.3915,1473.8965 L1940.3915,1477.9395 L1928.0283,1477.9395 Q1927.0908,1477.9395 1926.6806,1477.5879 Q1926.2704,1477.207 1926.2704,1476.6211 Q1926.2704,1476.0352 1926.6806,1475.6836 Q1927.0908,1475.3027 1928.0283,1475.3027 L1928.4384,1475.3027 L1928.4384,1465.0195 L1928.0283,1465.0195 Q1927.0908,1465.0195 1926.6806,1464.668 Q1926.2704,1464.2871 1926.2704,1463.7012 Q1926.2704,1463.1152 1926.6806,1462.7637 Q1927.0908,1462.3828 1928.0283,1462.3828 L1939.8349,1462.4121 L1939.8349,1466.3965 Q1939.8349,1467.334 1939.454,1467.7441 Q1939.1025,1468.1543 1938.5165,1468.1543 Q1937.9306,1468.1543 1937.5497,1467.7734 Q1937.1982,1467.3633 1937.1982,1466.3965 L1937.1982,1465.0195 L1931.0751,1465.0195 L1931.0751,1468.8281 L1933.3896,1468.8281 Q1933.3896,1467.8027 1933.5654,1467.5098 Q1933.9755,1466.8652 1934.7079,1466.8652 Q1935.2646,1466.8652 1935.6161,1467.2754 Q1935.997,1467.6855 1935.997,1468.623 L1935.997,1471.6699 Q1935.997,1472.5195 1935.7919,1472.8125 Q1935.3818,1473.4277 1934.7079,1473.4277 Q1933.9755,1473.4277 1933.5654,1472.7832 Q1933.3896,1472.4902 1933.3896,1471.4648 L1931.0751,1471.4648 Z " fill="#000000"/><text fill="#000000" font-family="sans-serif" font-size="26.25" lengthAdjust="spacing" textLength="198.4259" x="1983.0771" y="1481.1804">refresh_sessions</text><line style="stroke:#007F86;stroke-width:0.9375;" x1="1826.25" x2="2282.0801" y1="1511.3232" y2="1511.3232"/><text fill="#000000" font-family="sans-serif" font-size="26.25" lengthAdjust="spacing" textLength="188.1976" x="1850.625" y="1561.073">*id : UUID &#171;PK&#187;</text><text fill="#000000" font-family="sans-serif" font-size="26.25" lengthAdjust="spacing" textLength="252.3871" x="1850.625" y="1624.0906">*user_id : UUID &#171;FK&#187;</text><text fill="#000000" font-family="sans-serif" font-size="26.25" lengthAdjust="spacing" textLength="407.0801" x="1850.625" y="1687.1082">institution_id : UUID &#171;FK, nullable&#187;</text><line style="stroke:#007F86;stroke-width:1.875;" x1="1826.25" x2="2282.0801" y1="1715.376" y2="1715.376"/><text fill="#000000" font-family="sans-serif" font-size="26.25" lengthAdjust="spacing" textLength="189.6204" x="1850.625" y="1765.1257">family_id : UUID</text><text fill="#000000" font-family="sans-serif" font-size="26.25" lengthAdjust="spacing" textLength="135.7361" x="1850.625" y="1828.1433">token_hash</text><text fill="#000000" font-family="sans-serif" font-size="26.25" lengthAdjust="spacing" textLength="121.1115" x="1850.625" y="1891.1609">expires_at</text><text fill="#000000" font-family="sans-serif" font-size="26.25" lengthAdjust="spacing" textLength="129.8785" x="1850.625" y="1954.1785">revoked_at</text></g><!--class mfa--><g class="entity" data-entity="mfa" data-source-line="31" data-uid="ent0005" id="entity_mfa"><rect fill="#EEF5F7" height="552.8906" rx="9.375" ry="9.375" style="stroke:#007F86;stroke-width:0.9375;" width="459.5801" x="11.25" y="1429.5557"/><ellipse cx="126.6074" cy="1470.4395" fill="#ADD1B2" rx="18.75" ry="18.75" style="stroke:#181818;stroke-width:1.875;"/><path d="M125.2304,1471.4648 L125.2304,1475.3027 L131.9394,1475.3027 L131.9394,1473.8965 Q131.9394,1472.9297 132.291,1472.5488 Q132.6718,1472.1387 133.2578,1472.1387 Q133.8144,1472.1387 134.166,1472.5488 Q134.5468,1472.9297 134.5468,1473.8965 L134.5468,1477.9395 L122.1835,1477.9395 Q121.246,1477.9395 120.8359,1477.5879 Q120.4257,1477.207 120.4257,1476.6211 Q120.4257,1476.0352 120.8359,1475.6836 Q121.246,1475.3027 122.1835,1475.3027 L122.5937,1475.3027 L122.5937,1465.0195 L122.1835,1465.0195 Q121.246,1465.0195 120.8359,1464.668 Q120.4257,1464.2871 120.4257,1463.7012 Q120.4257,1463.1152 120.8359,1462.7637 Q121.246,1462.3828 122.1835,1462.3828 L133.9902,1462.4121 L133.9902,1466.3965 Q133.9902,1467.334 133.6093,1467.7441 Q133.2578,1468.1543 132.6718,1468.1543 Q132.0859,1468.1543 131.705,1467.7734 Q131.3535,1467.3633 131.3535,1466.3965 L131.3535,1465.0195 L125.2304,1465.0195 L125.2304,1468.8281 L127.5449,1468.8281 Q127.5449,1467.8027 127.7206,1467.5098 Q128.1308,1466.8652 128.8632,1466.8652 Q129.4199,1466.8652 129.7714,1467.2754 Q130.1523,1467.6855 130.1523,1468.623 L130.1523,1471.6699 Q130.1523,1472.5195 129.9472,1472.8125 Q129.537,1473.4277 128.8632,1473.4277 Q128.1308,1473.4277 127.7206,1472.7832 Q127.5449,1472.4902 127.5449,1471.4648 L125.2304,1471.4648 Z " fill="#000000"/><text fill="#000000" font-family="sans-serif" font-size="26.25" lengthAdjust="spacing" textLength="183.8654" x="177.2324" y="1481.1804">mfa_challenges</text><line style="stroke:#007F86;stroke-width:0.9375;" x1="13.125" x2="468.9551" y1="1511.3232" y2="1511.3232"/><text fill="#000000" font-family="sans-serif" font-size="26.25" lengthAdjust="spacing" textLength="188.1976" x="37.5" y="1561.073">*id : UUID &#171;PK&#187;</text><text fill="#000000" font-family="sans-serif" font-size="26.25" lengthAdjust="spacing" textLength="252.3871" x="37.5" y="1624.0906">*user_id : UUID &#171;FK&#187;</text><text fill="#000000" font-family="sans-serif" font-size="26.25" lengthAdjust="spacing" textLength="407.0801" x="37.5" y="1687.1082">institution_id : UUID &#171;FK, nullable&#187;</text><line style="stroke:#007F86;stroke-width:1.875;" x1="13.125" x2="468.9551" y1="1715.376" y2="1715.376"/><text fill="#000000" font-family="sans-serif" font-size="26.25" lengthAdjust="spacing" textLength="128.443" x="37.5" y="1765.1257">code_hash</text><text fill="#000000" font-family="sans-serif" font-size="26.25" lengthAdjust="spacing" textLength="100.6677" x="37.5" y="1828.1433">attempts</text><text fill="#000000" font-family="sans-serif" font-size="26.25" lengthAdjust="spacing" textLength="121.1115" x="37.5" y="1891.1609">expires_at</text><text fill="#000000" font-family="sans-serif" font-size="26.25" lengthAdjust="spacing" textLength="157.6025" x="37.5" y="1954.1785">consumed_at</text></g><!--class rolereq--><g class="entity" data-entity="rolereq" data-source-line="41" data-uid="ent0006" id="entity_rolereq"><rect fill="#EEF5F7" height="615.9082" rx="9.375" ry="9.375" style="stroke:#007F86;stroke-width:0.9375;" width="459.5801" x="504.375" y="1398.6182"/><ellipse cx="632.1396" cy="1439.502" fill="#ADD1B2" rx="18.75" ry="18.75" style="stroke:#181818;stroke-width:1.875;"/><path d="M630.7626,1440.5273 L630.7626,1444.3652 L637.4716,1444.3652 L637.4716,1442.959 Q637.4716,1441.9922 637.8232,1441.6113 Q638.204,1441.2012 638.79,1441.2012 Q639.3466,1441.2012 639.6982,1441.6113 Q640.079,1441.9922 640.079,1442.959 L640.079,1447.002 L627.7158,1447.002 Q626.7783,1447.002 626.3681,1446.6504 Q625.9579,1446.2695 625.9579,1445.6836 Q625.9579,1445.0977 626.3681,1444.7461 Q626.7783,1444.3652 627.7158,1444.3652 L628.1259,1444.3652 L628.1259,1434.082 L627.7158,1434.082 Q626.7783,1434.082 626.3681,1433.7305 Q625.9579,1433.3496 625.9579,1432.7637 Q625.9579,1432.1777 626.3681,1431.8262 Q626.7783,1431.4453 627.7158,1431.4453 L639.5224,1431.4746 L639.5224,1435.459 Q639.5224,1436.3965 639.1415,1436.8066 Q638.79,1437.2168 638.204,1437.2168 Q637.6181,1437.2168 637.2372,1436.8359 Q636.8857,1436.4258 636.8857,1435.459 L636.8857,1434.082 L630.7626,1434.082 L630.7626,1437.8906 L633.0771,1437.8906 Q633.0771,1436.8652 633.2529,1436.5723 Q633.663,1435.9277 634.3954,1435.9277 Q634.9521,1435.9277 635.3036,1436.3379 Q635.6845,1436.748 635.6845,1437.6855 L635.6845,1440.7324 Q635.6845,1441.582 635.4794,1441.875 Q635.0693,1442.4902 634.3954,1442.4902 Q633.663,1442.4902 633.2529,1441.8457 Q633.0771,1441.5527 633.0771,1440.5273 L630.7626,1440.5273 Z " fill="#000000"/><text fill="#000000" font-family="sans-serif" font-size="26.25" lengthAdjust="spacing" textLength="159.0509" x="682.7646" y="1450.2429">role_requests</text><line style="stroke:#007F86;stroke-width:0.9375;" x1="506.25" x2="962.0801" y1="1480.3857" y2="1480.3857"/><text fill="#000000" font-family="sans-serif" font-size="26.25" lengthAdjust="spacing" textLength="188.1976" x="530.625" y="1530.1355">*id : UUID &#171;PK&#187;</text><text fill="#000000" font-family="sans-serif" font-size="26.25" lengthAdjust="spacing" textLength="252.3871" x="530.625" y="1593.1531">*user_id : UUID &#171;FK&#187;</text><text fill="#000000" font-family="sans-serif" font-size="26.25" lengthAdjust="spacing" textLength="407.0801" x="530.625" y="1656.1707">institution_id : UUID &#171;FK, nullable&#187;</text><text fill="#000000" font-family="sans-serif" font-size="26.25" lengthAdjust="spacing" textLength="395.4291" x="530.625" y="1719.1882">decided_by : UUID &#171;FK, nullable&#187;</text><line style="stroke:#007F86;stroke-width:1.875;" x1="506.25" x2="962.0801" y1="1747.4561" y2="1747.4561"/><text fill="#000000" font-family="sans-serif" font-size="26.25" lengthAdjust="spacing" textLength="262.6666" x="530.625" y="1797.2058">requested_role : enum</text><text fill="#000000" font-family="sans-serif" font-size="26.25" lengthAdjust="spacing" textLength="157.5769" x="530.625" y="1860.2234">status : enum</text><text fill="#000000" font-family="sans-serif" font-size="26.25" lengthAdjust="spacing" textLength="129.8529" x="530.625" y="1923.241">justification</text><text fill="#000000" font-family="sans-serif" font-size="26.25" lengthAdjust="spacing" textLength="128.443" x="530.625" y="1986.2585">decided_at</text></g><g class="entity" data-entity="GMN12" data-source-line="58" data-uid="ent0013" id="entity_GMN12"><path d="M998.4375,1591.7432 L998.4375,1819.8486 A9.375,9.375 0 0 0 1007.8125,1829.2236 L1780.6714,1829.2236 A9.375,9.375 0 0 0 1790.0464,1819.8486 L1790.0464,1601.1182 L1771.2964,1582.3682 L1401.5625,1582.3682 L1394.0625,1261.826 L1386.5625,1582.3682 L1007.8125,1582.3682 A9.375,9.375 0 0 0 998.4375,1591.7432" fill="#FFF5DE" style="stroke:#C89139;stroke-width:0.9375;"/><path d="M1771.2964,1582.3682 L1771.2964,1596.4307 A4.6875,4.6875 0 0 0 1775.9839,1601.1182 L1790.0464,1601.1182 L1771.2964,1582.3682" fill="#FFF5DE" style="stroke:#C89139;stroke-width:0.9375;"/><text fill="#584021" font-family="sans-serif" font-size="26.25" lengthAdjust="spacing" textLength="478.5883" x="1024.6875" y="1633.9929">Role: super_admin, admin, staff, student.</text><text fill="#584021" font-family="sans-serif" font-size="26.25" lengthAdjust="spacing" textLength="499.0063" x="1024.6875" y="1667.0105">Tenantless platform accounts are possible.</text><text fill="#584021" font-family="sans-serif" font-size="26.25" lengthAdjust="spacing" textLength="722.2339" x="1024.6875" y="1700.0281">RLS: users, refresh_sessions, mfa_challenges, role_requests.</text><text fill="#584021" font-family="sans-serif" font-size="26.25" lengthAdjust="spacing" textLength="455.2606" x="1024.6875" y="1733.0457">Institution metadata has no RLS policy.</text><text fill="#584021" font-family="sans-serif" font-size="26.25" lengthAdjust="spacing" textLength="638.985" x="1024.6875" y="1766.0632">External modules store user UUIDs without FK access.</text><text fill="#584021" font-family="sans-serif" font-size="26.25" lengthAdjust="spacing" textLength="631.8329" x="1024.6875" y="1799.0808">See generated dictionary for exact field types/defaults.</text></g><g class="link" data-entity-1="institution" data-entity-2="user" data-uid="lnk7" id="link_institution_user"><line style="stroke:#486579;stroke-width:1.875;" x1="1684.3652" x2="1695.4281" y1="463.7135" y2="446.3065"/><ellipse cx="1684.3652" cy="463.7135" fill="none" rx="7.5" ry="7.5" style="stroke:#486579;stroke-width:1.875;"/><line style="stroke:#486579;stroke-width:1.875;" x1="1685.0754" x2="1697.735" y1="448.6135" y2="456.6592"/><line style="stroke:#486579;stroke-width:1.875;" x1="1616.8913" x2="1618.3403" y1="569.881" y2="588.575"/><line style="stroke:#486579;stroke-width:1.875;" x1="1616.8913" x2="1599.3508" y1="569.881" y2="576.5064"/><line style="stroke:#486579;stroke-width:1.875;" x1="1616.8913" x2="1608.8456" y1="569.881" y2="582.5407"/><ellipse cx="1622.9256" cy="560.3863" fill="none" rx="7.5" ry="7.5" style="stroke:#486579;stroke-width:1.875;"/><path d="M1680.3423,470.0434 C1653.9448,511.5788 1657.3095,506.2846 1626.9485,554.0565" fill="none" style="stroke:#486579;stroke-width:2.625;"/><text fill="#000000" font-family="sans-serif" font-size="26.25" lengthAdjust="spacing" textLength="72.9822" x="1692.1875" y="525.8679">tenant</text></g><g class="link" data-entity-1="user" data-entity-2="refresh" data-uid="lnk8" id="link_user_refresh"><line style="stroke:#486579;stroke-width:1.875;" x1="1605.355" x2="1616.6545" y1="1272.3615" y2="1262.4964"/><line style="stroke:#486579;stroke-width:1.875;" x1="1609.0544" x2="1620.3539" y1="1276.5989" y2="1266.7337"/><line style="stroke:#486579;stroke-width:1.875;" x1="1615.9373" x2="1606.0722" y1="1273.0787" y2="1261.7792"/><line style="stroke:#486579;stroke-width:1.875;" x1="1833.4338" x2="1852.131" y1="1419.1008" y2="1420.5065"/><line style="stroke:#486579;stroke-width:1.875;" x1="1833.4338" x2="1837.3195" y1="1419.1008" y2="1437.4437"/><line style="stroke:#486579;stroke-width:1.875;" x1="1833.4338" x2="1844.7253" y1="1419.1008" y2="1428.9751"/><ellipse cx="1824.9652" cy="1411.695" fill="none" rx="7.5" ry="7.5" style="stroke:#486579;stroke-width:1.875;"/><path d="M1615.9373,1273.0787 C1649.1112,1311.0759 1675.6205,1335.3601 1714.6875,1364.8682 C1749.3997,1391.0869 1771.1849,1373.3045 1806.5625,1398.6182 C1819.6111,1407.9548 1806.944,1395.9354 1819.3195,1406.7578" fill="none" style="stroke:#486579;stroke-width:2.625;"/><text fill="#000000" font-family="sans-serif" font-size="26.25" lengthAdjust="spacing" textLength="189.6716" x="1733.4375" y="1341.4929">rotates sessions</text></g><g class="link" data-entity-1="institution" data-entity-2="refresh" data-uid="lnk9" id="link_institution_refresh"><line style="stroke:#486579;stroke-width:1.875;" x1="1821.4159" x2="1817.6052" y1="466.7612" y2="446.4913"/><ellipse cx="1821.4159" cy="466.7612" fill="none" rx="7.5" ry="7.5" style="stroke:#486579;stroke-width:1.875;"/><line style="stroke:#486579;stroke-width:1.875;" x1="1811.62" x2="1826.3618" y1="455.2479" y2="452.4765"/><line style="stroke:#486579;stroke-width:1.875;" x1="1999.6275" x2="2013.4552" y1="1414.6951" y2="1427.3583"/><line style="stroke:#486579;stroke-width:1.875;" x1="1999.6275" x2="1991.3426" y1="1414.6951" y2="1431.5155"/><line style="stroke:#486579;stroke-width:1.875;" x1="1999.6275" x2="2002.3989" y1="1414.6951" y2="1429.4369"/><ellipse cx="1997.5489" cy="1403.6388" fill="none" rx="7.5" ry="7.5" style="stroke:#486579;stroke-width:1.875;"/><path d="M1822.8016,474.1321 C1866.6364,707.2959 1940.8685,1102.1475 1996.1632,1396.268" fill="none" style="stroke:#486579;stroke-width:2.625;"/><text fill="#000000" font-family="sans-serif" font-size="26.25" lengthAdjust="spacing" textLength="72.9822" x="1986.5625" y="933.6804">tenant</text></g><g class="link" data-entity-1="user" data-entity-2="mfa" data-uid="lnk10" id="link_user_mfa"><line style="stroke:#486579;stroke-width:1.875;" x1="1154.2276" x2="1160.0622" y1="1009.0076" y2="1022.8263"/><line style="stroke:#486579;stroke-width:1.875;" x1="1149.0456" x2="1154.8802" y1="1011.1956" y2="1025.0143"/><line style="stroke:#486579;stroke-width:1.875;" x1="1150.2355" x2="1164.0543" y1="1018.8343" y2="1012.9997"/><line style="stroke:#486579;stroke-width:1.875;" x1="462.5429" x2="459.4143" y1="1419.2218" y2="1437.7089"/><line style="stroke:#486579;stroke-width:1.875;" x1="462.5429" x2="443.9193" y1="1419.2218" y2="1421.3947"/><line style="stroke:#486579;stroke-width:1.875;" x1="462.5429" x2="451.6668" y1="1419.2218" y2="1429.5518"/><ellipse cx="470.7" cy="1411.4742" fill="none" rx="7.5" ry="7.5" style="stroke:#486579;stroke-width:1.875;"/><path d="M1150.2355,1018.8343 C956.7861,1100.5136 693.2993,1228.7751 486.5625,1398.6182 C474.7279,1408.3408 487.5476,1395.4727 476.1381,1406.3092" fill="none" style="stroke:#486579;stroke-width:2.625;"/><text fill="#000000" font-family="sans-serif" font-size="26.25" lengthAdjust="spacing" textLength="188.2617" x="640.3125" y="1341.4929">login challenges</text></g><g class="link" data-entity-1="user" data-entity-2="rolereq" data-uid="lnk11" id="link_user_rolereq"><line style="stroke:#486579;stroke-width:1.875;" x1="1153.2692" x2="1164.5912" y1="1186.4145" y2="1196.2539"/><line style="stroke:#486579;stroke-width:1.875;" x1="1149.5795" x2="1160.9014" y1="1190.6602" y2="1200.4996"/><line style="stroke:#486579;stroke-width:1.875;" x1="1154.0105" x2="1163.8499" y1="1196.9952" y2="1185.6732"/><line style="stroke:#486579;stroke-width:1.875;" x1="973.8892" x2="972.9334" y1="1407.7545" y2="1426.4801"/><line style="stroke:#486579;stroke-width:1.875;" x1="973.8892" x2="955.645" y1="1407.7545" y2="1412.0801"/><line style="stroke:#486579;stroke-width:1.875;" x1="973.8892" x2="964.2892" y1="1407.7545" y2="1419.2801"/><ellipse cx="981.0892" cy="1399.1103" fill="none" rx="7.5" ry="7.5" style="stroke:#486579;stroke-width:1.875;"/><path d="M1154.0105,1196.9952 C1094.1746,1265.8464 1039.9711,1329.022 981.5625,1398.6182 C975.8566,1405.417 991.6919,1386.3809 985.8892,1393.3475" fill="none" style="stroke:#486579;stroke-width:2.625;"/><text fill="#000000" font-family="sans-serif" font-size="26.25" lengthAdjust="spacing" textLength="194.068" x="1079.0625" y="1341.4929">applies for a role</text></g><g class="legend" data-source-line="65"><rect fill="none" height="147.8027" rx="9.375" ry="9.375" style="stroke:#000000;stroke-width:1.875;" width="743.2599" x="769.3076" y="2024.8682"/><text fill="#000000" font-family="sans-serif" font-size="26.25" lengthAdjust="spacing" textLength="694.5099" x="793.6826" y="2076.4929">PK = primary key; FK = database-enforced local foreign key</text><text fill="#000000" font-family="sans-serif" font-size="26.25" lengthAdjust="spacing" textLength="529.6912" x="793.6826" y="2109.5105">A nullable reference has a zero-or-one parent</text><text fill="#000000" font-family="sans-serif" font-size="26.25" lengthAdjust="spacing" textLength="593.7909" x="793.6826" y="2142.5281">Diagram is a selected-field view, not complete DDL</text></g><!--SRC=[jLJRJjj047ttLqnvH77wxW9IfO24mWE2ycnjl6DdorxSlG0fwR_th7Dp4AXI9LxYtTd9p3bdBb-KRNIIJ779XgTzChg8AcgcQyaMfnL94SL21AOrNMuidhM8ojcmL7qejcudoWOSql1mGYBGo42l1T4fAKaLFJnSp-Zix7P-SG5ZMUB72iFu19qwE2IhVYKk_kmZfy1-4pAVFeurIbYFdw_c4x99Qx7GV4ZAHYXzI4VKYn2UdPVrKeGbxYt-Kc-XUGT9AcARJ4uKQj54zPHVMaHXMMlNALkB6DdqCS2kNVC8Um87FUBYkVKSbdNW4FPAROqVCpiTcByXzH-SMs6KNXqSOOhkaUsECh_q2aZ08tFc9vSfu7B0RrfHDqkXDTkED-XX-dpaZPEyGpbI-GXm0psJUOiubwxsZ1g7k9KR5XW-5RJaHab0MQp-nMmB3Rx7JHQYY2aSxZyJKhUg6KPlb64WEvwrjIjBzxgPbOeYMs5ZCTpMw-5brsuLb40I3hJhnlVY7BpV2PLhNz7G_7HeY-DiMxKh4dsl5RArpfCOx8LraMdXOdI6N3jWBkxmK558FKeWf55sGjiF96dR_4bvEKsB7mCW3V3KOoKXhY7HD0v35qXufjw15zIU5dStzzKGFapexGnEwBYh9tJKCzFYUgIAuIZoIYGq8rb728mqMZMhQN7v4jbReSaucNJMDJgW6DJ8FH3eMSMbIv6kvXaeya-BUsRgsB979IH9rUGqmgy6cVW5YuPQnLfINFKSlafkHT8P5Lj9MRz2SvVF6ndH6RTpEgVUAvEZFFBgMqvtlb_a9Lk4Rf0CEmfWSM7LsUo9Ft_VjsZM2PMp3GzS1VrcxqhdIsUXBEIrUUXcIdHU6En4U0JMt816kK7yfFXvaZ5YD4sl6RMUpMuoy0talm00]--></g></svg>