<svg xmlns="http://www.w3.org/2000/svg" xmlns:xlink="http://www.w3.org/1999/xlink" contentStyleType="text/css" data-diagram-type="CLASS" height="2647.5px" preserveAspectRatio="none" style="width:1226px;height:2647px;background:#FFFFFF;" version="1.1" viewBox="0 0 1226 2647" width="1226.25px" zoomAndPan="magnify"><title>Identity database | Entity relationships</title><defs/><g><g class="title" data-source-line="2"><text fill="#15324F" font-family="sans-serif" font-size="43.125" font-weight="bold" lengthAdjust="spacing" textLength="788.4842" x="211.8517" y="78.5175">Identity database | Entity relationships</text></g><!--class institution--><g class="entity" data-entity="institution" data-source-line="3" data-uid="ent0002" id="entity_institution"><rect fill="#EEF5F7" height="300.8203" rx="9.375" ry="9.375" style="stroke:#007F86;stroke-width:0.9375;" width="240.6976" x="703.125" y="146.1182"/><ellipse cx="743.067" cy="187.002" fill="#ADD1B2" rx="18.75" ry="18.75" style="stroke:#181818;stroke-width:1.875;"/><path d="M741.69,188.0273 L741.69,191.8652 L748.399,191.8652 L748.399,190.459 Q748.399,189.4922 748.7506,189.1113 Q749.1314,188.7012 749.7174,188.7012 Q750.274,188.7012 750.6256,189.1113 Q751.0064,189.4922 751.0064,190.459 L751.0064,194.502 L738.6432,194.502 Q737.7057,194.502 737.2955,194.1504 Q736.8853,193.7695 736.8853,193.1836 Q736.8853,192.5977 737.2955,192.2461 Q737.7057,191.8652 738.6432,191.8652 L739.0533,191.8652 L739.0533,181.582 L738.6432,181.582 Q737.7057,181.582 737.2955,181.2305 Q736.8853,180.8496 736.8853,180.2637 Q736.8853,179.6777 737.2955,179.3262 Q737.7057,178.9453 738.6432,178.9453 L750.4498,178.9746 L750.4498,182.959 Q750.4498,183.8965 750.0689,184.3066 Q749.7174,184.7168 749.1314,184.7168 Q748.5455,184.7168 748.1646,184.3359 Q747.8131,183.9258 747.8131,182.959 L747.8131,181.582 L741.69,181.582 L741.69,185.3906 L744.0045,185.3906 Q744.0045,184.3652 744.1803,184.0723 Q744.5904,183.4277 745.3228,183.4277 Q745.8795,183.4277 746.231,183.8379 Q746.6119,184.248 746.6119,185.1855 L746.6119,188.2324 Q746.6119,189.082 746.4068,189.375 Q745.9967,189.9902 745.3228,189.9902 Q744.5904,189.9902 744.1803,189.3457 Q744.0045,189.0527 744.0045,188.0273 L741.69,188.0273 Z " fill="#000000"/><text fill="#000000" font-family="sans-serif" font-size="26.25" lengthAdjust="spacing" textLength="124.021" x="785.4846" y="197.7429">institutions</text><line style="stroke:#007F86;stroke-width:0.9375;" x1="705" x2="941.9476" y1="227.8857" y2="227.8857"/><text fill="#000000" font-family="sans-serif" font-size="26.25" lengthAdjust="spacing" textLength="188.1976" x="729.375" y="277.6355">*id : UUID &#171;PK&#187;</text><line style="stroke:#007F86;stroke-width:1.875;" x1="705" x2="941.9476" y1="305.9033" y2="305.9033"/><text fill="#000000" font-family="sans-serif" font-size="26.25" lengthAdjust="spacing" textLength="65.6635" x="729.375" y="355.6531">name</text><text fill="#000000" font-family="sans-serif" font-size="26.25" lengthAdjust="spacing" textLength="148.8611" x="729.375" y="418.6707">slug : unique</text></g><!--class campus--><g class="entity" data-entity="campus" data-source-line="9" data-uid="ent0003" id="entity_campus"><rect fill="#EEF5F7" height="300.8203" rx="9.375" ry="9.375" style="stroke:#007F86;stroke-width:0.9375;" width="364.7186" x="379.6875" y="582.9932"/><ellipse cx="479.7281" cy="623.877" fill="#ADD1B2" rx="18.75" ry="18.75" style="stroke:#181818;stroke-width:1.875;"/><path d="M478.3511,624.9023 L478.3511,628.7402 L485.0601,628.7402 L485.0601,627.334 Q485.0601,626.3672 485.4117,625.9863 Q485.7925,625.5762 486.3785,625.5762 Q486.9351,625.5762 487.2867,625.9863 Q487.6675,626.3672 487.6675,627.334 L487.6675,631.377 L475.3043,631.377 Q474.3668,631.377 473.9566,631.0254 Q473.5464,630.6445 473.5464,630.0586 Q473.5464,629.4727 473.9566,629.1211 Q474.3668,628.7402 475.3043,628.7402 L475.7144,628.7402 L475.7144,618.457 L475.3043,618.457 Q474.3668,618.457 473.9566,618.1055 Q473.5464,617.7246 473.5464,617.1387 Q473.5464,616.5527 473.9566,616.2012 Q474.3668,615.8203 475.3043,615.8203 L487.1109,615.8496 L487.1109,619.834 Q487.1109,620.7715 486.73,621.1816 Q486.3785,621.5918 485.7925,621.5918 Q485.2066,621.5918 484.8257,621.2109 Q484.4742,620.8008 484.4742,619.834 L484.4742,618.457 L478.3511,618.457 L478.3511,622.2656 L480.6656,622.2656 Q480.6656,621.2402 480.8414,620.9473 Q481.2515,620.3027 481.9839,620.3027 Q482.5406,620.3027 482.8922,620.7129 Q483.273,621.123 483.273,622.0605 L483.273,625.1074 Q483.273,625.957 483.0679,626.25 Q482.6578,626.8652 481.9839,626.8652 Q481.2515,626.8652 480.8414,626.2207 Q480.6656,625.9277 480.6656,624.9023 L478.3511,624.9023 Z " fill="#000000"/><text fill="#000000" font-family="sans-serif" font-size="26.25" lengthAdjust="spacing" textLength="119.6375" x="530.3531" y="634.6179">campuses</text><line style="stroke:#007F86;stroke-width:0.9375;" x1="381.5625" x2="742.5311" y1="664.7607" y2="664.7607"/><text fill="#000000" font-family="sans-serif" font-size="26.25" lengthAdjust="spacing" textLength="188.1976" x="405.9375" y="714.5105">*id : UUID &#171;PK&#187;</text><text fill="#000000" font-family="sans-serif" font-size="26.25" lengthAdjust="spacing" textLength="312.2186" x="405.9375" y="777.5281">*institution_id : UUID &#171;FK&#187;</text><line style="stroke:#007F86;stroke-width:1.875;" x1="381.5625" x2="742.5311" y1="805.7959" y2="805.7959"/><text fill="#000000" font-family="sans-serif" font-size="26.25" lengthAdjust="spacing" textLength="65.6635" x="405.9375" y="855.5457">name</text></g><!--class user--><g class="entity" data-entity="user" data-source-line="15" data-uid="ent0004" id="entity_user"><rect fill="#EEF5F7" height="741.9434" rx="9.375" ry="9.375" style="stroke:#007F86;stroke-width:0.9375;" width="459.5801" x="398.4375" y="1019.8682"/><ellipse cx="573.6328" cy="1060.752" fill="#ADD1B2" rx="18.75" ry="18.75" style="stroke:#181818;stroke-width:1.875;"/><path d="M572.2559,1061.7773 L572.2559,1065.6152 L578.9648,1065.6152 L578.9648,1064.209 Q578.9648,1063.2422 579.3164,1062.8613 Q579.6973,1062.4512 580.2832,1062.4512 Q580.8398,1062.4512 581.1914,1062.8613 Q581.5723,1063.2422 581.5723,1064.209 L581.5723,1068.252 L569.209,1068.252 Q568.2715,1068.252 567.8613,1067.9004 Q567.4512,1067.5195 567.4512,1066.9336 Q567.4512,1066.3477 567.8613,1065.9961 Q568.2715,1065.6152 569.209,1065.6152 L569.6191,1065.6152 L569.6191,1055.332 L569.209,1055.332 Q568.2715,1055.332 567.8613,1054.9805 Q567.4512,1054.5996 567.4512,1054.0137 Q567.4512,1053.4277 567.8613,1053.0762 Q568.2715,1052.6953 569.209,1052.6953 L581.0156,1052.7246 L581.0156,1056.709 Q581.0156,1057.6465 580.6348,1058.0566 Q580.2832,1058.4668 579.6973,1058.4668 Q579.1113,1058.4668 578.7305,1058.0859 Q578.3789,1057.6758 578.3789,1056.709 L578.3789,1055.332 L572.2559,1055.332 L572.2559,1059.1406 L574.5703,1059.1406 Q574.5703,1058.1152 574.7461,1057.8223 Q575.1563,1057.1777 575.8887,1057.1777 Q576.4453,1057.1777 576.7969,1057.5879 Q577.1777,1057.998 577.1777,1058.9355 L577.1777,1061.9824 Q577.1777,1062.832 576.9727,1063.125 Q576.5625,1063.7402 575.8887,1063.7402 Q575.1563,1063.7402 574.7461,1063.0957 Q574.5703,1062.8027 574.5703,1061.7773 L572.2559,1061.7773 Z " fill="#000000"/><text fill="#000000" font-family="sans-serif" font-size="26.25" lengthAdjust="spacing" textLength="64.1895" x="624.2578" y="1071.4929">users</text><line style="stroke:#007F86;stroke-width:0.9375;" x1="400.3125" x2="856.1426" y1="1101.6357" y2="1101.6357"/><text fill="#000000" font-family="sans-serif" font-size="26.25" lengthAdjust="spacing" textLength="188.1976" x="424.6875" y="1151.3855">*id : UUID &#171;PK&#187;</text><text fill="#000000" font-family="sans-serif" font-size="26.25" lengthAdjust="spacing" textLength="407.0801" x="424.6875" y="1214.4031">institution_id : UUID &#171;FK, nullable&#187;</text><text fill="#000000" font-family="sans-serif" font-size="26.25" lengthAdjust="spacing" textLength="388.0975" x="424.6875" y="1277.4207">campus_id : UUID &#171;FK, nullable&#187;</text><line style="stroke:#007F86;stroke-width:1.875;" x1="400.3125" x2="856.1426" y1="1305.6885" y2="1305.6885"/><text fill="#000000" font-family="sans-serif" font-size="26.25" lengthAdjust="spacing" textLength="163.4344" x="424.6875" y="1355.4382">email : unique</text><text fill="#000000" font-family="sans-serif" font-size="26.25" lengthAdjust="spacing" textLength="183.8654" x="424.6875" y="1418.4558">password_hash</text><text fill="#000000" font-family="sans-serif" font-size="26.25" lengthAdjust="spacing" textLength="113.8184" x="424.6875" y="1481.4734">full_name</text><text fill="#000000" font-family="sans-serif" font-size="26.25" lengthAdjust="spacing" textLength="131.3141" x="424.6875" y="1544.491">role : enum</text><text fill="#000000" font-family="sans-serif" font-size="26.25" lengthAdjust="spacing" textLength="102.1289" x="424.6875" y="1607.5085">is_active</text><text fill="#000000" font-family="sans-serif" font-size="26.25" lengthAdjust="spacing" textLength="248.0804" x="424.6875" y="1670.5261">failed_login_attempts</text><text fill="#000000" font-family="sans-serif" font-size="26.25" lengthAdjust="spacing" textLength="138.6328" x="424.6875" y="1733.5437">locked_until</text></g><!--class refresh--><g class="entity" data-entity="refresh" data-source-line="28" data-uid="ent0005" id="entity_refresh"><rect fill="#EEF5F7" height="552.8906" rx="9.375" ry="9.375" style="stroke:#007F86;stroke-width:0.9375;" width="459.5801" x="754.6875" y="1899.2432"/><ellipse cx="862.7646" cy="1940.127" fill="#ADD1B2" rx="18.75" ry="18.75" style="stroke:#181818;stroke-width:1.875;"/><path d="M861.3876,1941.1523 L861.3876,1944.9902 L868.0966,1944.9902 L868.0966,1943.584 Q868.0966,1942.6172 868.4482,1942.2363 Q868.829,1941.8262 869.415,1941.8262 Q869.9716,1941.8262 870.3232,1942.2363 Q870.704,1942.6172 870.704,1943.584 L870.704,1947.627 L858.3408,1947.627 Q857.4033,1947.627 856.9931,1947.2754 Q856.5829,1946.8945 856.5829,1946.3086 Q856.5829,1945.7227 856.9931,1945.3711 Q857.4033,1944.9902 858.3408,1944.9902 L858.7509,1944.9902 L858.7509,1934.707 L858.3408,1934.707 Q857.4033,1934.707 856.9931,1934.3555 Q856.5829,1933.9746 856.5829,1933.3887 Q856.5829,1932.8027 856.9931,1932.4512 Q857.4033,1932.0703 858.3408,1932.0703 L870.1474,1932.0996 L870.1474,1936.084 Q870.1474,1937.0215 869.7665,1937.4316 Q869.415,1937.8418 868.829,1937.8418 Q868.2431,1937.8418 867.8622,1937.4609 Q867.5107,1937.0508 867.5107,1936.084 L867.5107,1934.707 L861.3876,1934.707 L861.3876,1938.5156 L863.7021,1938.5156 Q863.7021,1937.4902 863.8779,1937.1973 Q864.288,1936.5527 865.0204,1936.5527 Q865.5771,1936.5527 865.9286,1936.9629 Q866.3095,1937.373 866.3095,1938.3105 L866.3095,1941.3574 Q866.3095,1942.207 866.1044,1942.5 Q865.6943,1943.1152 865.0204,1943.1152 Q864.288,1943.1152 863.8779,1942.4707 Q863.7021,1942.1777 863.7021,1941.1523 L861.3876,1941.1523 Z " fill="#000000"/><text fill="#000000" font-family="sans-serif" font-size="26.25" lengthAdjust="spacing" textLength="198.4259" x="913.3896" y="1950.8679">refresh_sessions</text><line style="stroke:#007F86;stroke-width:0.9375;" x1="756.5625" x2="1212.3926" y1="1981.0107" y2="1981.0107"/><text fill="#000000" font-family="sans-serif" font-size="26.25" lengthAdjust="spacing" textLength="188.1976" x="780.9375" y="2030.7605">*id : UUID &#171;PK&#187;</text><text fill="#000000" font-family="sans-serif" font-size="26.25" lengthAdjust="spacing" textLength="252.3871" x="780.9375" y="2093.7781">*user_id : UUID &#171;FK&#187;</text><text fill="#000000" font-family="sans-serif" font-size="26.25" lengthAdjust="spacing" textLength="407.0801" x="780.9375" y="2156.7957">institution_id : UUID &#171;FK, nullable&#187;</text><line style="stroke:#007F86;stroke-width:1.875;" x1="756.5625" x2="1212.3926" y1="2185.0635" y2="2185.0635"/><text fill="#000000" font-family="sans-serif" font-size="26.25" lengthAdjust="spacing" textLength="189.6204" x="780.9375" y="2234.8132">family_id : UUID</text><text fill="#000000" font-family="sans-serif" font-size="26.25" lengthAdjust="spacing" textLength="135.7361" x="780.9375" y="2297.8308">token_hash</text><text fill="#000000" font-family="sans-serif" font-size="26.25" lengthAdjust="spacing" textLength="121.1115" x="780.9375" y="2360.8484">expires_at</text><text fill="#000000" font-family="sans-serif" font-size="26.25" lengthAdjust="spacing" textLength="129.8785" x="780.9375" y="2423.866">revoked_at</text></g><g class="entity" data-entity="GMN11" data-source-line="44" data-uid="ent0012" id="entity_GMN11"><path d="M11.25,2061.4307 L11.25,2289.5361 A9.375,9.375 0 0 0 20.625,2298.9111 L710.235,2298.9111 A9.375,9.375 0 0 0 719.61,2289.5361 L719.61,2070.8057 L700.86,2052.0557 L414.3481,2052.0557 L503.7935,1762.8793 L399.3481,2052.0557 L20.625,2052.0557 A9.375,9.375 0 0 0 11.25,2061.4307" fill="#FFF5DE" style="stroke:#C89139;stroke-width:0.9375;"/><path d="M700.86,2052.0557 L700.86,2066.1182 A4.6875,4.6875 0 0 0 705.5475,2070.8057 L719.61,2070.8057 L700.86,2052.0557" fill="#FFF5DE" style="stroke:#C89139;stroke-width:0.9375;"/><text fill="#584021" font-family="sans-serif" font-size="26.25" lengthAdjust="spacing" textLength="478.5883" x="37.5" y="2103.6804">Role: super_admin, admin, staff, student.</text><text fill="#584021" font-family="sans-serif" font-size="26.25" lengthAdjust="spacing" textLength="499.0063" x="37.5" y="2136.698">Tenantless platform accounts are possible.</text><text fill="#584021" font-family="sans-serif" font-size="26.25" lengthAdjust="spacing" textLength="449.3903" x="37.5" y="2169.7156">RLS: users and refresh_sessions only.</text><text fill="#584021" font-family="sans-serif" font-size="26.25" lengthAdjust="spacing" textLength="554.4672" x="37.5" y="2202.7332">Institution/campus metadata has no RLS policy.</text><text fill="#584021" font-family="sans-serif" font-size="26.25" lengthAdjust="spacing" textLength="638.985" x="37.5" y="2235.7507">External modules store user UUIDs without FK access.</text><text fill="#584021" font-family="sans-serif" font-size="26.25" lengthAdjust="spacing" textLength="631.8329" x="37.5" y="2268.7683">See generated dictionary for exact field types/defaults.</text></g><g class="link" data-entity-1="institution" data-entity-2="user" data-uid="lnk6" id="link_institution_user"><line style="stroke:#486579;stroke-width:1.875;" x1="833.389" x2="832.5908" y1="466.853" y2="446.2434"/><ellipse cx="833.389" cy="466.853" fill="none" rx="7.5" ry="7.5" style="stroke:#486579;stroke-width:1.875;"/><line style="stroke:#486579;stroke-width:1.875;" x1="825.3867" x2="840.3754" y1="454.0281" y2="453.4476"/><line style="stroke:#486579;stroke-width:1.875;" x1="792.5469" x2="799.5519" y1="1005.1614" y2="1022.5538"/><line style="stroke:#486579;stroke-width:1.875;" x1="792.5469" x2="777.8116" y1="1005.1614" y2="1016.7561"/><line style="stroke:#486579;stroke-width:1.875;" x1="792.5469" x2="788.6817" y1="1005.1614" y2="1019.6549"/><ellipse cx="795.4457" cy="994.2913" fill="none" rx="7.5" ry="7.5" style="stroke:#486579;stroke-width:1.875;"/><path d="M833.6792,474.3474 C839.1278,615.033 837.21,803.4171 796.875,986.1182 C794.4216,997.2313 800.3728,975.8158 797.3783,987.0446" fill="none" style="stroke:#486579;stroke-width:2.625;"/><text fill="#000000" font-family="sans-serif" font-size="26.25" lengthAdjust="spacing" textLength="72.9822" x="855" y="744.3054">tenant</text></g><g class="link" data-entity-1="institution" data-entity-2="campus" data-uid="lnk7" id="link_institution_campus"><line style="stroke:#486579;stroke-width:1.875;" x1="692.5216" x2="704.207" y1="423.3702" y2="432.7751"/><line style="stroke:#486579;stroke-width:1.875;" x1="688.9948" x2="700.6802" y1="427.7522" y2="437.1571"/><line style="stroke:#486579;stroke-width:1.875;" x1="693.6619" x2="703.0668" y1="433.9154" y2="422.23"/><line style="stroke:#486579;stroke-width:1.875;" x1="616.8646" x2="621.6625" y1="568.9153" y2="587.0411"/><line style="stroke:#486579;stroke-width:1.875;" x1="616.8646" x2="600.8073" y1="568.9153" y2="578.5965"/><line style="stroke:#486579;stroke-width:1.875;" x1="616.8646" x2="611.2349" y1="568.9153" y2="582.8188"/><ellipse cx="621.0869" cy="558.4877" fill="none" rx="7.5" ry="7.5" style="stroke:#486579;stroke-width:1.875;"/><path d="M693.6619,433.9154 C678.7327,452.4644 673.9155,460.2736 661.875,479.8682 C642.3513,511.6407 638.0369,516.6271 623.9017,551.536" fill="none" style="stroke:#486579;stroke-width:2.625;"/><text fill="#000000" font-family="sans-serif" font-size="26.25" lengthAdjust="spacing" textLength="97.771" x="680.625" y="525.8679">contains</text></g><g class="link" data-entity-1="campus" data-entity-2="user" data-uid="lnk8" id="link_campus_user"><line style="stroke:#486579;stroke-width:1.875;" x1="557.0527" x2="557.5323" y1="903.8689" y2="883.2494"/><ellipse cx="557.0527" cy="903.8689" fill="none" rx="7.5" ry="7.5" style="stroke:#486579;stroke-width:1.875;"/><line style="stroke:#486579;stroke-width:1.875;" x1="549.8599" x2="564.8559" y1="890.573" y2="890.9218"/><line style="stroke:#486579;stroke-width:1.875;" x1="558.5386" x2="571.3578" y1="1004.5183" y2="1018.2015"/><line style="stroke:#486579;stroke-width:1.875;" x1="558.5386" x2="548.9921" y1="1004.5183" y2="1020.656"/><line style="stroke:#486579;stroke-width:1.875;" x1="558.5386" x2="560.175" y1="1004.5183" y2="1019.4287"/><ellipse cx="557.3114" cy="993.3354" fill="none" rx="7.5" ry="7.5" style="stroke:#486579;stroke-width:1.875;"/><path d="M556.8783,911.3668 C556.6146,922.6997 557.0435,905.8457 556.875,916.7432 C556.3984,947.5728 554.1815,955.4027 556.875,986.1182 C557.8373,997.0922 555.2626,974.6665 556.4932,985.8802" fill="none" style="stroke:#486579;stroke-width:2.625;"/><text fill="#000000" font-family="sans-serif" font-size="26.25" lengthAdjust="spacing" textLength="204.2834" x="575.625" y="962.7429">assigned campus</text></g><g class="link" data-entity-1="user" data-entity-2="refresh" data-uid="lnk9" id="link_user_refresh"><line style="stroke:#486579;stroke-width:1.875;" x1="685.9436" x2="700.2361" y1="1771.9189" y2="1767.3665"/><line style="stroke:#486579;stroke-width:1.875;" x1="687.6507" x2="701.9432" y1="1777.2786" y2="1772.7262"/><line style="stroke:#486579;stroke-width:1.875;" x1="695.366" x2="690.8136" y1="1776.7889" y2="1762.4964"/><line style="stroke:#486579;stroke-width:1.875;" x1="746.6241" x2="763.95" y1="1895.2461" y2="1902.4136"/><line style="stroke:#486579;stroke-width:1.875;" x1="746.6241" x2="744.5945" y1="1895.2461" y2="1913.8859"/><line style="stroke:#486579;stroke-width:1.875;" x1="746.6241" x2="754.2723" y1="1895.2461" y2="1908.1497"/><ellipse cx="740.8879" cy="1885.5683" fill="none" rx="7.5" ry="7.5" style="stroke:#486579;stroke-width:1.875;"/><path d="M695.366,1776.7889 C706.7038,1812.3844 715.5119,1833.0001 731.25,1865.4932 C738.1952,1879.8323 728.7271,1865.0513 737.0638,1879.1165" fill="none" style="stroke:#486579;stroke-width:2.625;"/><text fill="#000000" font-family="sans-serif" font-size="26.25" lengthAdjust="spacing" textLength="189.6716" x="750" y="1842.1179">rotates sessions</text></g><g class="link" data-entity-1="institution" data-entity-2="refresh" data-uid="lnk10" id="link_institution_refresh"><line style="stroke:#486579;stroke-width:1.875;" x1="912.7301" x2="904.1558" y1="465.1006" y2="446.3423"/><ellipse cx="912.7301" cy="465.1006" fill="none" rx="7.5" ry="7.5" style="stroke:#486579;stroke-width:1.875;"/><line style="stroke:#486579;stroke-width:1.875;" x1="900.4525" x2="914.0949" y1="456.2814" y2="450.0456"/><line style="stroke:#486579;stroke-width:1.875;" x1="1013.2735" x2="1023.336" y1="1883.9779" y2="1899.799"/><line style="stroke:#486579;stroke-width:1.875;" x1="1013.2735" x2="1000.9027" y1="1883.9779" y2="1898.0678"/><line style="stroke:#486579;stroke-width:1.875;" x1="1013.2735" x2="1012.1193" y1="1883.9779" y2="1898.9334"/><ellipse cx="1014.1391" cy="1872.7612" fill="none" rx="7.5" ry="7.5" style="stroke:#486579;stroke-width:1.875;"/><path d="M915.848,471.9217 C935.4413,514.7863 942.0411,536.8901 952.5,582.9932 C1055.1031,1035.2722 1039.4437,1544.8672 1014.7162,1865.2835" fill="none" style="stroke:#486579;stroke-width:2.625;"/><text fill="#000000" font-family="sans-serif" font-size="26.25" lengthAdjust="spacing" textLength="72.9822" x="1031.25" y="962.7429">tenant</text></g><g class="legend" data-source-line="51"><rect fill="none" height="147.8027" rx="9.375" ry="9.375" style="stroke:#000000;stroke-width:1.875;" width="743.2599" x="234.4638" y="2463.6182"/><text fill="#000000" font-family="sans-serif" font-size="26.25" lengthAdjust="spacing" textLength="694.5099" x="258.8388" y="2515.2429">PK = primary key; FK = database-enforced local foreign key</text><text fill="#000000" font-family="sans-serif" font-size="26.25" lengthAdjust="spacing" textLength="529.6912" x="258.8388" y="2548.2605">A nullable reference has a zero-or-one parent</text><text fill="#000000" font-family="sans-serif" font-size="26.25" lengthAdjust="spacing" textLength="593.7909" x="258.8388" y="2581.2781">Diagram is a selected-field view, not complete DDL</text></g><!--SRC=[ZLHDJ-Cm4BtdLynoHAJSiu2qKa52S42mdAiXdhGM_iZw0-W2_tsVaz0M16WljJrvVlFcpRW_j6jDLa9f9LPcVRQcIZePeNCb3hirAKvynr7eXKx7I133INiNLxgFrGJRqovYauSFUyIHTWBqN17jarRKqEtj-PoEZgukJauGh6lyEBQ29Pgy120x_ITBzRfXRjdsESh8EXw-9jpVpRlO1PnzpBZD0FOmqfVTr-HVKn-GoyRmdP41EAhy7ZC84SlQR8icwZd6Hn_KOiLnXNE7Aul9eE3Hc8R4PLl4n0MtIJ-KBnrOH2sCNsgtu9J4zYaYRdnxZtX6dMQdtY1TaBXQmDIuwTSK_CxQuivddlwtBqFD7LjjrbiWGidVYtihMPvw3IMeezGi3xwKWCDhjJjIBxwk_VFOi8QIE7RfFU1b04m3qr3hNM80gYdodW2swwKJDU6h8JnHl3dJe0E9aqHwC-upHLlq9Chv97JdK_AMV3SahAxHoePYxc4eAwlT0KrBJDnrPSdb1SwgtmE9GKBgyUuw7onnsthqD187eTv32moULTUNDyr0ZmzEqSSkatTcFQlEjv8F9oki92xldD01Sfv015gZMy1Fdv84nuQiLzcKsfD7ri6Vqhr8ZpgjV4vqTb648TcikX6XfJW9S4kHqct9nc5Da8_-Ocwfqs8KfNKlyL19nzaaN1JeBdvLHfPbFzg6ERYwe6FgWxQ5vLxMFqkwuys_KoqEr2sIOUGX5WT1FmiIbtzjfh2O8a5SAqEjJ7yb-Dg7sZiu2JjT6RgvvcLWYoS6H1GZBSgeHyKFMXuFYaOCbEsDeBVp-MKHFah-1m00]--></g></svg>