<svg xmlns="http://www.w3.org/2000/svg" xmlns:xlink="http://www.w3.org/1999/xlink" contentStyleType="text/css" data-diagram-type="SEQUENCE" height="4074.375px" preserveAspectRatio="none" style="width:2923px;height:4074px;background:#FFFFFF;" version="1.1" viewBox="0 0 2923 4074" width="2923.125px" zoomAndPan="magnify"><title>Tuition payment | Durable intent and atomic settlement</title><defs/><g><text fill="#15324F" font-family="sans-serif" font-size="43.125" font-weight="bold" lengthAdjust="spacing" textLength="1126.2616" x="901.7816" y="87.8925">Tuition payment | Durable intent and atomic settlement</text><rect fill="#F7FAFC" height="278.3203" rx="9.375" ry="9.375" style="stroke:#9AAEBE;stroke-width:2.8125;" width="776.6025" x="562.2006" y="517.0459"/><rect fill="#F7FAFC" height="371.3379" rx="9.375" ry="9.375" style="stroke:#9AAEBE;stroke-width:2.8125;" width="1045.6705" x="562.2006" y="910.8838"/><path d="M562.2006,1101.8115 L1607.8711,1101.8115 L1607.8711,1272.8467 A9.375,9.375 0 0 1 1598.4961,1282.2217 L571.5756,1282.2217 A9.375,9.375 0 0 1 562.2006,1272.8467 L562.2006,1101.8115" fill="#F7FAFC" style="stroke:none;stroke-width:1.875;"/><rect fill="#F7FAFC" height="2087.7246" rx="9.375" ry="9.375" style="stroke:#9AAEBE;stroke-width:2.8125;" width="2894.1998" x="18.75" y="1397.7393"/><rect fill="#F7FAFC" height="436.2305" rx="9.375" ry="9.375" style="stroke:#9AAEBE;stroke-width:2.8125;" width="2391.8509" x="37.5" y="1512.5244"/><path d="M37.5,1703.4521 L2429.3509,1703.4521 L2429.3509,1939.3799 A9.375,9.375 0 0 1 2419.9759,1948.7549 L46.875,1948.7549 A9.375,9.375 0 0 1 37.5,1939.3799 L37.5,1703.4521" fill="#F7FAFC" style="stroke:none;stroke-width:1.875;"/><rect fill="#F7FAFC" height="1408.0664" rx="9.375" ry="9.375" style="stroke:#9AAEBE;stroke-width:2.8125;" width="1800.0897" x="1094.1101" y="2064.2725"/><path d="M1094.1101,2279.5752 L2894.1998,2279.5752 L2894.1998,3462.9639 A9.375,9.375 0 0 1 2884.8248,3472.3389 L1103.4851,3472.3389 A9.375,9.375 0 0 1 1094.1101,3462.9639 L1094.1101,2279.5752" fill="#F7FAFC" style="stroke:none;stroke-width:1.875;"/><rect fill="#F7FAFC" height="1010.4785" rx="9.375" ry="9.375" style="stroke:#9AAEBE;stroke-width:2.8125;" width="1501.1774" x="1112.8601" y="2448.7354"/><path d="M1112.8601,2664.0381 L2614.0375,2664.0381 L2614.0375,2810.6982 A9.375,9.375 0 0 1 2604.6625,2820.0732 L1122.2351,2820.0732 A9.375,9.375 0 0 1 1112.8601,2810.6982 L1112.8601,2664.0381" fill="#F7FAFC" style="stroke:none;stroke-width:1.875;"/><path d="M1112.8601,2820.0732 L2614.0375,2820.0732 L2614.0375,3449.8389 A9.375,9.375 0 0 1 2604.6625,3459.2139 L1122.2351,3459.2139 A9.375,9.375 0 0 1 1112.8601,3449.8389 L1112.8601,2820.0732" fill="#F7FAFC" style="stroke:none;stroke-width:1.875;"/><rect fill="#F7FAFC" height="456.8555" rx="9.375" ry="9.375" style="stroke:#9AAEBE;stroke-width:2.8125;" width="1297.7408" x="1131.6101" y="2989.2334"/><g><title>Student UI</title><rect fill="#000000" fill-opacity="0.00000" height="3613.1836" width="15" x="146.185" y="282.2607"/><line style="stroke:#9AAEBE;stroke-width:0.9375;stroke-dasharray:9.375,9.375;" x1="151.875" x2="151.875" y1="282.2607" y2="3895.4443"/></g><g><title>Finance API</title><rect fill="#000000" fill-opacity="0.00000" height="3613.1836" width="15" x="673.071" y="282.2607"/><line style="stroke:#9AAEBE;stroke-width:0.9375;stroke-dasharray:9.375,9.375;" x1="680.3256" x2="680.3256" y1="282.2607" y2="3895.4443"/></g><g><title>finance_db</title><rect fill="#000000" fill-opacity="0.00000" height="3613.1836" width="15" x="1227.7066" y="282.2607"/><line style="stroke:#9AAEBE;stroke-width:0.9375;stroke-dasharray:9.375,9.375;" x1="1234.7351" x2="1234.7351" y1="282.2607" y2="3895.4443"/></g><g><title>Provider adapter</title><rect fill="#000000" fill-opacity="0.00000" height="3613.1836" width="15" x="1456.4621" y="282.2607"/><line style="stroke:#9AAEBE;stroke-width:0.9375;stroke-dasharray:9.375,9.375;" x1="1462.5531" x2="1462.5531" y1="282.2607" y2="3895.4443"/></g><g><title>Finance worker</title><rect fill="#000000" fill-opacity="0.00000" height="3613.1836" width="15" x="1718.2178" y="282.2607"/><line style="stroke:#9AAEBE;stroke-width:0.9375;stroke-dasharray:9.375,9.375;" x1="1724.1211" x2="1724.1211" y1="282.2607" y2="3895.4443"/></g><g><title>reconcile_intent</title><rect fill="#000000" fill-opacity="0.00000" height="3613.1836" width="15" x="2283.0432" y="282.2607"/><line style="stroke:#9AAEBE;stroke-width:0.9375;stroke-dasharray:9.375,9.375;" x1="2290.4855" x2="2290.4855" y1="282.2607" y2="3895.4443"/></g><g class="participant participant-head" data-participant="UI"><rect fill="#EEF5F7" height="122.2852" rx="9.375" ry="9.375" style="stroke:#007F86;stroke-width:0.9375;" width="194.87" x="56.25" y="158.1006"/><text fill="#000000" font-family="sans-serif" font-size="26.25" lengthAdjust="spacing" textLength="124.0338" x="91.6681" y="213.4753">Student UI</text><text fill="#000000" font-family="sans-serif" font-size="26.25" lengthAdjust="spacing" textLength="138.62" x="84.375" y="246.4929">via gateway</text></g><g class="participant participant-tail" data-participant="UI"><rect fill="#EEF5F7" height="122.2852" rx="9.375" ry="9.375" style="stroke:#007F86;stroke-width:0.9375;" width="194.87" x="56.25" y="3893.5693"/><text fill="#000000" font-family="sans-serif" font-size="26.25" lengthAdjust="spacing" textLength="124.0338" x="91.6681" y="3948.9441">Student UI</text><text fill="#000000" font-family="sans-serif" font-size="26.25" lengthAdjust="spacing" textLength="138.62" x="84.375" y="3981.9617">via gateway</text></g><g class="participant participant-head" data-participant="API"><rect fill="#EEF5F7" height="89.2676" rx="9.375" ry="9.375" style="stroke:#007F86;stroke-width:0.9375;" width="199.2407" x="580.9506" y="191.1182"/><text fill="#000000" font-family="sans-serif" font-size="26.25" lengthAdjust="spacing" textLength="142.9907" x="609.0756" y="246.4929">Finance API</text></g><g class="participant participant-tail" data-participant="API"><rect fill="#EEF5F7" height="89.2676" rx="9.375" ry="9.375" style="stroke:#007F86;stroke-width:0.9375;" width="199.2407" x="580.9506" y="3893.5693"/><text fill="#000000" font-family="sans-serif" font-size="26.25" lengthAdjust="spacing" textLength="142.9907" x="609.0756" y="3948.9441">Finance API</text></g><g class="participant participant-head" data-participant="DB"><text fill="#000000" font-family="sans-serif" font-size="26.25" lengthAdjust="spacing" textLength="128.443" x="1165.3601" y="261.4929">finance_db</text><path d="M1201.4566,151.7432 C1201.4566,132.9932 1235.2066,132.9932 1235.2066,132.9932 C1235.2066,132.9932 1268.9566,132.9932 1268.9566,151.7432 L1268.9566,200.4932 C1268.9566,219.2432 1235.2066,219.2432 1235.2066,219.2432 C1235.2066,219.2432 1201.4566,219.2432 1201.4566,200.4932 L1201.4566,151.7432" fill="#E8F2FA" style="stroke:#3D6E97;stroke-width:0.9375;"/><path d="M1201.4566,151.7432 C1201.4566,170.4932 1235.2066,170.4932 1235.2066,170.4932 C1235.2066,170.4932 1268.9566,170.4932 1268.9566,151.7432" fill="none" style="stroke:#3D6E97;stroke-width:0.9375;"/></g><g class="participant participant-tail" data-participant="DB"><text fill="#000000" font-family="sans-serif" font-size="26.25" lengthAdjust="spacing" textLength="128.443" x="1165.3601" y="3935.8191">finance_db</text><path d="M1201.4566,3975.3369 C1201.4566,3956.5869 1235.2066,3956.5869 1235.2066,3956.5869 C1235.2066,3956.5869 1268.9566,3956.5869 1268.9566,3975.3369 L1268.9566,4024.0869 C1268.9566,4042.8369 1235.2066,4042.8369 1235.2066,4042.8369 C1235.2066,4042.8369 1201.4566,4042.8369 1201.4566,4024.0869 L1201.4566,3975.3369" fill="#E8F2FA" style="stroke:#3D6E97;stroke-width:0.9375;"/><path d="M1201.4566,3975.3369 C1201.4566,3994.0869 1235.2066,3994.0869 1235.2066,3994.0869 C1235.2066,3994.0869 1268.9566,3994.0869 1268.9566,3975.3369" fill="none" style="stroke:#3D6E97;stroke-width:0.9375;"/></g><g class="participant participant-head" data-participant="PSP"><rect fill="#EEF5F7" height="89.2676" rx="9.375" ry="9.375" style="stroke:#007F86;stroke-width:0.9375;" width="250.318" x="1338.8031" y="191.1182"/><text fill="#000000" font-family="sans-serif" font-size="26.25" lengthAdjust="spacing" textLength="194.068" x="1366.9281" y="246.4929">Provider adapter</text></g><g class="participant participant-tail" data-participant="PSP"><rect fill="#EEF5F7" height="89.2676" rx="9.375" ry="9.375" style="stroke:#007F86;stroke-width:0.9375;" width="250.318" x="1338.8031" y="3893.5693"/><text fill="#000000" font-family="sans-serif" font-size="26.25" lengthAdjust="spacing" textLength="194.068" x="1366.9281" y="3948.9441">Provider adapter</text></g><g class="participant participant-head" data-participant="W"><rect fill="#EEF5F7" height="89.2676" rx="9.375" ry="9.375" style="stroke:#007F86;stroke-width:0.9375;" width="235.6934" x="1607.8711" y="191.1182"/><text fill="#000000" font-family="sans-serif" font-size="26.25" lengthAdjust="spacing" textLength="179.4434" x="1635.9961" y="246.4929">Finance worker</text></g><g class="participant participant-tail" data-participant="W"><rect fill="#EEF5F7" height="89.2676" rx="9.375" ry="9.375" style="stroke:#007F86;stroke-width:0.9375;" width="235.6934" x="1607.8711" y="3893.5693"/><text fill="#000000" font-family="sans-serif" font-size="26.25" lengthAdjust="spacing" textLength="179.4434" x="1635.9961" y="3948.9441">Finance worker</text></g><g class="participant participant-head" data-participant="R"><rect fill="#EEF5F7" height="122.2852" rx="9.375" ry="9.375" style="stroke:#007F86;stroke-width:0.9375;" width="240.1154" x="2170.4855" y="158.1006"/><text fill="#000000" font-family="sans-serif" font-size="26.25" lengthAdjust="spacing" textLength="183.8654" x="2198.6105" y="213.4753">reconcile_intent</text><text fill="#000000" font-family="sans-serif" font-size="26.25" lengthAdjust="spacing" textLength="179.4946" x="2200.7959" y="246.4929">shared function</text></g><g class="participant participant-tail" data-participant="R"><rect fill="#EEF5F7" height="122.2852" rx="9.375" ry="9.375" style="stroke:#007F86;stroke-width:0.9375;" width="240.1154" x="2170.4855" y="3893.5693"/><text fill="#000000" font-family="sans-serif" font-size="26.25" lengthAdjust="spacing" textLength="183.8654" x="2198.6105" y="3948.9441">reconcile_intent</text><text fill="#000000" font-family="sans-serif" font-size="26.25" lengthAdjust="spacing" textLength="179.4946" x="2200.7959" y="3981.9617">shared function</text></g><g class="message" data-participant-1="UI" data-participant-2="API"><polygon fill="#486579" points="658.071,367.7783,676.821,375.2783,658.071,382.7783,665.571,375.2783" style="stroke:#486579;stroke-width:1.875;"/><line style="stroke:#486579;stroke-width:2.625;" x1="153.685" x2="669.321" y1="375.2783" y2="375.2783"/><text fill="#000000" font-family="sans-serif" font-size="26.25" font-weight="bold" lengthAdjust="spacing" textLength="14.599" x="181.81" y="350.7605">1</text><text fill="#000000" font-family="sans-serif" font-size="26.25" lengthAdjust="spacing" textLength="399.787" x="233.909" y="350.7605">POST invoice/{id}/payment-intents</text></g><g class="message" data-participant-1="API" data-participant-2="API"><line style="stroke:#486579;stroke-width:2.625;" x1="680.571" x2="759.321" y1="464.5459" y2="464.5459"/><line style="stroke:#486579;stroke-width:2.625;" x1="759.321" x2="759.321" y1="464.5459" y2="488.9209"/><line style="stroke:#486579;stroke-width:2.625;" x1="682.446" x2="759.321" y1="488.9209" y2="488.9209"/><polygon fill="#486579" points="701.196,481.4209,682.446,488.9209,701.196,496.4209,693.696,488.9209" style="stroke:#486579;stroke-width:1.875;"/><text fill="#000000" font-family="sans-serif" font-size="26.25" font-weight="bold" lengthAdjust="spacing" textLength="14.599" x="708.696" y="440.0281">2</text><text fill="#000000" font-family="sans-serif" font-size="26.25" lengthAdjust="spacing" textLength="413.6938" x="760.795" y="440.0281">Check ownership + pending invoice</text></g><path d="M571.5756,517.0459 L1012.0706,517.0459 L1012.0706,565.0635 L993.3206,583.8135 L562.2006,583.8135 L562.2006,526.4209 A9.375,9.375 0 0 1 571.5756,517.0459" fill="#F7FAFC" style="stroke:#9AAEBE;stroke-width:2.8125;"/><rect fill="none" height="278.3203" rx="9.375" ry="9.375" style="stroke:#9AAEBE;stroke-width:2.8125;" width="776.6025" x="562.2006" y="517.0459"/><text fill="#000000" font-family="sans-serif" font-size="26.25" font-weight="bold" lengthAdjust="spacing" textLength="335.495" x="605.3256" y="561.1707">Commit before external I/O</text><g class="message" data-participant-1="API" data-participant-2="DB"><polygon fill="#486579" points="1212.7066,683.5986,1231.4566,691.0986,1212.7066,698.5986,1220.2066,691.0986" style="stroke:#486579;stroke-width:1.875;"/><line style="stroke:#486579;stroke-width:2.625;" x1="680.571" x2="1223.9566" y1="691.0986" y2="691.0986"/><text fill="#000000" font-family="sans-serif" font-size="26.25" font-weight="bold" lengthAdjust="spacing" textLength="14.599" x="708.696" y="650.072">3</text><text fill="#000000" font-family="sans-serif" font-size="26.25" lengthAdjust="spacing" textLength="394.6985" x="760.795" y="633.5632">INSERT intent + unique reference</text><text fill="#000000" font-family="sans-serif" font-size="26.25" lengthAdjust="spacing" textLength="427.5366" x="760.795" y="666.5808">partial unique active-intent constraint</text></g><g class="message" data-participant-1="API" data-participant-2="DB"><polygon fill="#486579" points="1212.7066,772.8662,1231.4566,780.3662,1212.7066,787.8662,1220.2066,780.3662" style="stroke:#486579;stroke-width:1.875;"/><line style="stroke:#486579;stroke-width:2.625;" x1="680.571" x2="1223.9566" y1="780.3662" y2="780.3662"/><text fill="#000000" font-family="sans-serif" font-size="26.25" font-weight="bold" lengthAdjust="spacing" textLength="14.599" x="708.696" y="755.8484">4</text><text fill="#000000" font-family="sans-serif" font-size="26.25" lengthAdjust="spacing" textLength="106.4355" x="760.795" y="755.8484">COMMIT</text></g><g class="message" data-participant-1="API" data-participant-2="PSP"><polygon fill="#486579" points="1441.4621,875.2588,1460.2121,882.7588,1441.4621,890.2588,1448.9621,882.7588" style="stroke:#486579;stroke-width:1.875;"/><line style="stroke:#486579;stroke-width:2.625;" x1="680.571" x2="1452.7121" y1="882.7588" y2="882.7588"/><text fill="#000000" font-family="sans-serif" font-size="26.25" font-weight="bold" lengthAdjust="spacing" textLength="14.599" x="708.696" y="858.241">5</text><text fill="#000000" font-family="sans-serif" font-size="26.25" lengthAdjust="spacing" textLength="503.4027" x="760.795" y="858.241">request_to_pay(reference, amount, mobile)</text></g><path d="M571.5756,910.8838 L707.2092,910.8838 L707.2092,958.9014 L688.4592,977.6514 L562.2006,977.6514 L562.2006,920.2588 A9.375,9.375 0 0 1 571.5756,910.8838" fill="#F7FAFC" style="stroke:#9AAEBE;stroke-width:2.8125;"/><rect fill="none" height="371.3379" rx="9.375" ry="9.375" style="stroke:#9AAEBE;stroke-width:2.8125;" width="1045.6705" x="562.2006" y="910.8838"/><text fill="#000000" font-family="sans-serif" font-size="26.25" font-weight="bold" lengthAdjust="spacing" textLength="30.6335" x="605.3256" y="955.0085">alt</text><text fill="#000000" font-family="sans-serif" font-size="26.25" font-weight="bold" lengthAdjust="spacing" textLength="242.146" x="750.3342" y="956.8835">[Request accepted]</text><g class="message" data-participant-1="PSP" data-participant-2="API"><polygon fill="#486579" points="701.196,1079.3115,682.446,1086.8115,701.196,1094.3115,693.696,1086.8115" style="stroke:#486579;stroke-width:1.875;"/><line style="stroke:#486579;stroke-width:2.625;stroke-dasharray:3.75,3.75;" x1="689.946" x2="1462.0871" y1="1086.8115" y2="1086.8115"/><text fill="#000000" font-family="sans-serif" font-size="26.25" font-weight="bold" lengthAdjust="spacing" textLength="14.599" x="727.446" y="1062.2937">6</text><text fill="#000000" font-family="sans-serif" font-size="26.25" lengthAdjust="spacing" textLength="402.7222" x="779.545" y="1062.2937">Accepted / no settlement assertion</text></g><line style="stroke:#9AAEBE;stroke-width:1.875;stroke-dasharray:3.75,3.75;" x1="562.2006" x2="1607.8711" y1="1103.6865" y2="1103.6865"/><text fill="#000000" font-family="sans-serif" font-size="26.25" font-weight="bold" lengthAdjust="spacing" textLength="278.5474" x="586.5756" y="1145.9363">[Exception or timeout]</text><g class="message" data-participant-1="API" data-participant-2="API"><line style="stroke:#486579;stroke-width:2.625;" x1="680.571" x2="759.321" y1="1242.8467" y2="1242.8467"/><line style="stroke:#486579;stroke-width:2.625;" x1="759.321" x2="759.321" y1="1242.8467" y2="1267.2217"/><line style="stroke:#486579;stroke-width:2.625;" x1="682.446" x2="759.321" y1="1267.2217" y2="1267.2217"/><polygon fill="#486579" points="701.196,1259.7217,682.446,1267.2217,701.196,1274.7217,693.696,1267.2217" style="stroke:#486579;stroke-width:1.875;"/><text fill="#000000" font-family="sans-serif" font-size="26.25" font-weight="bold" lengthAdjust="spacing" textLength="14.599" x="708.696" y="1218.3289">7</text><text fill="#000000" font-family="sans-serif" font-size="26.25" lengthAdjust="spacing" textLength="366.3208" x="760.795" y="1218.3289">Log failure; keep intent pending</text></g><g class="message" data-participant-1="API" data-participant-2="UI"><polygon fill="#486579" points="174.31,1362.1143,155.56,1369.6143,174.31,1377.1143,166.81,1369.6143" style="stroke:#486579;stroke-width:1.875;"/><line style="stroke:#486579;stroke-width:2.625;stroke-dasharray:3.75,3.75;" x1="163.06" x2="678.696" y1="1369.6143" y2="1369.6143"/><text fill="#000000" font-family="sans-serif" font-size="26.25" font-weight="bold" lengthAdjust="spacing" textLength="14.599" x="200.56" y="1345.0964">8</text><text fill="#000000" font-family="sans-serif" font-size="26.25" lengthAdjust="spacing" textLength="233.5071" x="252.659" y="1345.0964">201 intent (pending)</text></g><path d="M28.125,1397.7393 L188.5217,1397.7393 L188.5217,1445.7568 L169.7717,1464.5068 L18.75,1464.5068 L18.75,1407.1143 A9.375,9.375 0 0 1 28.125,1397.7393" fill="#F7FAFC" style="stroke:#9AAEBE;stroke-width:2.8125;"/><rect fill="none" height="2087.7246" rx="9.375" ry="9.375" style="stroke:#9AAEBE;stroke-width:2.8125;" width="2894.1998" x="18.75" y="1397.7393"/><text fill="#000000" font-family="sans-serif" font-size="26.25" font-weight="bold" lengthAdjust="spacing" textLength="55.3967" x="61.875" y="1441.864">loop</text><text fill="#000000" font-family="sans-serif" font-size="26.25" font-weight="bold" lengthAdjust="spacing" textLength="650.5975" x="231.6467" y="1443.739">[UI polls 1.5 s while pending; worker polls every 3 s]</text><path d="M46.875,1512.5244 L182.5085,1512.5244 L182.5085,1560.542 L163.7585,1579.292 L37.5,1579.292 L37.5,1521.8994 A9.375,9.375 0 0 1 46.875,1512.5244" fill="#F7FAFC" style="stroke:#9AAEBE;stroke-width:2.8125;"/><rect fill="none" height="436.2305" rx="9.375" ry="9.375" style="stroke:#9AAEBE;stroke-width:2.8125;" width="2391.8509" x="37.5" y="1512.5244"/><text fill="#000000" font-family="sans-serif" font-size="26.25" font-weight="bold" lengthAdjust="spacing" textLength="30.6335" x="80.625" y="1556.6492">alt</text><text fill="#000000" font-family="sans-serif" font-size="26.25" font-weight="bold" lengthAdjust="spacing" textLength="246.4783" x="225.6335" y="1558.5242">[Worker invocation]</text><g class="message" data-participant-1="W" data-participant-2="R"><polygon fill="#486579" points="2268.0432,1680.9521,2286.7932,1688.4521,2268.0432,1695.9521,2275.5432,1688.4521" style="stroke:#486579;stroke-width:1.875;"/><line style="stroke:#486579;stroke-width:2.625;" x1="1725.7178" x2="2279.2932" y1="1688.4521" y2="1688.4521"/><text fill="#000000" font-family="sans-serif" font-size="26.25" font-weight="bold" lengthAdjust="spacing" textLength="14.599" x="1753.8428" y="1663.9343">9</text><text fill="#000000" font-family="sans-serif" font-size="26.25" lengthAdjust="spacing" textLength="437.7264" x="1805.9418" y="1663.9343">reconcile_intent(session, gateway, id)</text></g><line style="stroke:#9AAEBE;stroke-width:1.875;stroke-dasharray:3.75,3.75;" x1="37.5" x2="2429.3509" y1="1705.3271" y2="1705.3271"/><text fill="#000000" font-family="sans-serif" font-size="26.25" font-weight="bold" lengthAdjust="spacing" textLength="230.4565" x="61.875" y="1747.5769">[UI status request]</text><g class="message" data-participant-1="UI" data-participant-2="API"><polygon fill="#486579" points="658.071,1836.9873,676.821,1844.4873,658.071,1851.9873,665.571,1844.4873" style="stroke:#486579;stroke-width:1.875;"/><line style="stroke:#486579;stroke-width:2.625;" x1="153.685" x2="669.321" y1="1844.4873" y2="1844.4873"/><text fill="#000000" font-family="sans-serif" font-size="26.25" font-weight="bold" lengthAdjust="spacing" textLength="29.198" x="181.81" y="1819.9695">10</text><text fill="#000000" font-family="sans-serif" font-size="26.25" lengthAdjust="spacing" textLength="293.2745" x="248.508" y="1819.9695">GET payment-intents/{id}</text></g><g class="message" data-participant-1="API" data-participant-2="R"><polygon fill="#486579" points="2268.0432,1926.2549,2286.7932,1933.7549,2268.0432,1941.2549,2275.5432,1933.7549" style="stroke:#486579;stroke-width:1.875;"/><line style="stroke:#486579;stroke-width:2.625;" x1="680.571" x2="2279.2932" y1="1933.7549" y2="1933.7549"/><text fill="#000000" font-family="sans-serif" font-size="26.25" font-weight="bold" lengthAdjust="spacing" textLength="29.198" x="708.696" y="1909.2371">11</text><text fill="#000000" font-family="sans-serif" font-size="26.25" lengthAdjust="spacing" textLength="437.7264" x="775.394" y="1909.2371">reconcile_intent(session, gateway, id)</text></g><g class="message" data-participant-1="R" data-participant-2="DB"><polygon fill="#486579" points="1255.8316,2028.6475,1237.0816,2036.1475,1255.8316,2043.6475,1248.3316,2036.1475" style="stroke:#486579;stroke-width:1.875;"/><line style="stroke:#486579;stroke-width:2.625;" x1="1244.5816" x2="2288.6682" y1="2036.1475" y2="2036.1475"/><text fill="#000000" font-family="sans-serif" font-size="26.25" font-weight="bold" lengthAdjust="spacing" textLength="29.198" x="1282.0816" y="2011.6296">12</text><text fill="#000000" font-family="sans-serif" font-size="26.25" lengthAdjust="spacing" textLength="350.094" x="1348.7796" y="2011.6296">SELECT intent FOR UPDATE</text></g><path d="M1103.4851,2064.2725 L1239.1187,2064.2725 L1239.1187,2112.29 L1220.3687,2131.04 L1094.1101,2131.04 L1094.1101,2073.6475 A9.375,9.375 0 0 1 1103.4851,2064.2725" fill="#F7FAFC" style="stroke:#9AAEBE;stroke-width:2.8125;"/><rect fill="none" height="1408.0664" rx="9.375" ry="9.375" style="stroke:#9AAEBE;stroke-width:2.8125;" width="1800.0897" x="1094.1101" y="2064.2725"/><text fill="#000000" font-family="sans-serif" font-size="26.25" font-weight="bold" lengthAdjust="spacing" textLength="30.6335" x="1137.2351" y="2108.3972">alt</text><text fill="#000000" font-family="sans-serif" font-size="26.25" font-weight="bold" lengthAdjust="spacing" textLength="205.6293" x="1282.2437" y="2110.2722">[Terminal intent]</text><g class="message" data-participant-1="R" data-participant-2="R"><line style="stroke:#486579;stroke-width:2.625;" x1="2290.5432" x2="2369.2932" y1="2240.2002" y2="2240.2002"/><line style="stroke:#486579;stroke-width:2.625;" x1="2369.2932" x2="2369.2932" y1="2240.2002" y2="2264.5752"/><line style="stroke:#486579;stroke-width:2.625;" x1="2292.4182" x2="2369.2932" y1="2264.5752" y2="2264.5752"/><polygon fill="#486579" points="2311.1682,2257.0752,2292.4182,2264.5752,2311.1682,2272.0752,2303.6682,2264.5752" style="stroke:#486579;stroke-width:1.875;"/><text fill="#000000" font-family="sans-serif" font-size="26.25" font-weight="bold" lengthAdjust="spacing" textLength="29.198" x="2318.6682" y="2215.6824">13</text><text fill="#000000" font-family="sans-serif" font-size="26.25" lengthAdjust="spacing" textLength="471.3336" x="2385.3662" y="2215.6824">Return stored state; no duplicate posting</text></g><line style="stroke:#9AAEBE;stroke-width:1.875;stroke-dasharray:3.75,3.75;" x1="1094.1101" x2="2894.1998" y1="2281.4502" y2="2281.4502"/><text fill="#000000" font-family="sans-serif" font-size="26.25" font-weight="bold" lengthAdjust="spacing" textLength="199.7589" x="1118.4851" y="2323.7">[Pending intent]</text><g class="message" data-participant-1="R" data-participant-2="PSP"><polygon fill="#486579" points="1484.5871,2413.1104,1465.8371,2420.6104,1484.5871,2428.1104,1477.0871,2420.6104" style="stroke:#486579;stroke-width:1.875;"/><line style="stroke:#486579;stroke-width:2.625;" x1="1473.3371" x2="2288.6682" y1="2420.6104" y2="2420.6104"/><text fill="#000000" font-family="sans-serif" font-size="26.25" font-weight="bold" lengthAdjust="spacing" textLength="29.198" x="1510.8371" y="2396.0925">14</text><text fill="#000000" font-family="sans-serif" font-size="26.25" lengthAdjust="spacing" textLength="249.5032" x="1577.5351" y="2396.0925">get_status(reference)</text></g><path d="M1122.2351,2448.7354 L1257.8687,2448.7354 L1257.8687,2496.7529 L1239.1187,2515.5029 L1112.8601,2515.5029 L1112.8601,2458.1104 A9.375,9.375 0 0 1 1122.2351,2448.7354" fill="#F7FAFC" style="stroke:#9AAEBE;stroke-width:2.8125;"/><rect fill="none" height="1010.4785" rx="9.375" ry="9.375" style="stroke:#9AAEBE;stroke-width:2.8125;" width="1501.1774" x="1112.8601" y="2448.7354"/><text fill="#000000" font-family="sans-serif" font-size="26.25" font-weight="bold" lengthAdjust="spacing" textLength="30.6335" x="1155.9851" y="2492.8601">alt</text><text fill="#000000" font-family="sans-serif" font-size="26.25" font-weight="bold" lengthAdjust="spacing" textLength="250.8746" x="1300.9937" y="2494.7351">[Provider PENDING]</text><g class="message" data-participant-1="R" data-participant-2="R"><line style="stroke:#486579;stroke-width:2.625;" x1="2290.5432" x2="2369.2932" y1="2624.6631" y2="2624.6631"/><line style="stroke:#486579;stroke-width:2.625;" x1="2369.2932" x2="2369.2932" y1="2624.6631" y2="2649.0381"/><line style="stroke:#486579;stroke-width:2.625;" x1="2292.4182" x2="2369.2932" y1="2649.0381" y2="2649.0381"/><polygon fill="#486579" points="2311.1682,2641.5381,2292.4182,2649.0381,2311.1682,2656.5381,2303.6682,2649.0381" style="stroke:#486579;stroke-width:1.875;"/><text fill="#000000" font-family="sans-serif" font-size="26.25" font-weight="bold" lengthAdjust="spacing" textLength="29.198" x="2318.6682" y="2600.1453">15</text><text fill="#000000" font-family="sans-serif" font-size="26.25" lengthAdjust="spacing" textLength="191.1713" x="2385.3662" y="2600.1453">Remain pending</text></g><line style="stroke:#9AAEBE;stroke-width:1.875;stroke-dasharray:3.75,3.75;" x1="1112.8601" x2="2614.0375" y1="2665.9131" y2="2665.9131"/><text fill="#000000" font-family="sans-serif" font-size="26.25" font-weight="bold" lengthAdjust="spacing" textLength="226.0602" x="1137.2351" y="2708.1628">[Provider FAILED]</text><g class="message" data-participant-1="R" data-participant-2="DB"><polygon fill="#486579" points="1255.8316,2797.5732,1237.0816,2805.0732,1255.8316,2812.5732,1248.3316,2805.0732" style="stroke:#486579;stroke-width:1.875;"/><line style="stroke:#486579;stroke-width:2.625;" x1="1244.5816" x2="2288.6682" y1="2805.0732" y2="2805.0732"/><text fill="#000000" font-family="sans-serif" font-size="26.25" font-weight="bold" lengthAdjust="spacing" textLength="29.198" x="1282.0816" y="2780.5554">16</text><text fill="#000000" font-family="sans-serif" font-size="26.25" lengthAdjust="spacing" textLength="301.9775" x="1348.7796" y="2780.5554">Set intent failed; COMMIT</text></g><line style="stroke:#9AAEBE;stroke-width:1.875;stroke-dasharray:3.75,3.75;" x1="1112.8601" x2="2614.0375" y1="2821.9482" y2="2821.9482"/><text fill="#000000" font-family="sans-serif" font-size="26.25" font-weight="bold" lengthAdjust="spacing" textLength="309.2065" x="1137.2351" y="2864.198">[Provider SUCCESSFUL]</text><g class="message" data-participant-1="R" data-participant-2="DB"><polygon fill="#486579" points="1255.8316,2953.6084,1237.0816,2961.1084,1255.8316,2968.6084,1248.3316,2961.1084" style="stroke:#486579;stroke-width:1.875;"/><line style="stroke:#486579;stroke-width:2.625;" x1="1244.5816" x2="2288.6682" y1="2961.1084" y2="2961.1084"/><text fill="#000000" font-family="sans-serif" font-size="26.25" font-weight="bold" lengthAdjust="spacing" textLength="29.198" x="1282.0816" y="2936.5906">17</text><text fill="#000000" font-family="sans-serif" font-size="26.25" lengthAdjust="spacing" textLength="367.5897" x="1348.7796" y="2936.5906">SELECT invoice FOR UPDATE</text></g><path d="M1140.9851,2989.2334 L1469.1357,2989.2334 L1469.1357,3037.251 L1450.3857,3056.001 L1131.6101,3056.001 L1131.6101,2998.6084 A9.375,9.375 0 0 1 1140.9851,2989.2334" fill="#F7FAFC" style="stroke:#9AAEBE;stroke-width:2.8125;"/><rect fill="none" height="456.8555" rx="9.375" ry="9.375" style="stroke:#9AAEBE;stroke-width:2.8125;" width="1297.7408" x="1131.6101" y="2989.2334"/><text fill="#000000" font-family="sans-serif" font-size="26.25" font-weight="bold" lengthAdjust="spacing" textLength="223.1506" x="1174.7351" y="3033.3582">One ACID commit</text><g class="message" data-participant-1="R" data-participant-2="DB"><polygon fill="#486579" points="1255.8316,3122.7686,1237.0816,3130.2686,1255.8316,3137.7686,1248.3316,3130.2686" style="stroke:#486579;stroke-width:1.875;"/><line style="stroke:#486579;stroke-width:2.625;" x1="1244.5816" x2="2288.6682" y1="3130.2686" y2="3130.2686"/><text fill="#000000" font-family="sans-serif" font-size="26.25" font-weight="bold" lengthAdjust="spacing" textLength="29.198" x="1282.0816" y="3105.7507">18</text><text fill="#000000" font-family="sans-serif" font-size="26.25" lengthAdjust="spacing" textLength="413.7195" x="1348.7796" y="3105.7507">Set intent succeeded + invoice paid</text></g><g class="message" data-participant-1="R" data-participant-2="DB"><polygon fill="#486579" points="1255.8316,3245.0537,1237.0816,3252.5537,1255.8316,3260.0537,1248.3316,3252.5537" style="stroke:#486579;stroke-width:1.875;"/><line style="stroke:#486579;stroke-width:2.625;" x1="1244.5816" x2="2288.6682" y1="3252.5537" y2="3252.5537"/><text fill="#000000" font-family="sans-serif" font-size="26.25" font-weight="bold" lengthAdjust="spacing" textLength="29.198" x="1282.0816" y="3211.5271">19</text><text fill="#000000" font-family="sans-serif" font-size="26.25" lengthAdjust="spacing" textLength="419.4745" x="1348.7796" y="3195.0183">INSERT cash debit + revenue credit</text><text fill="#000000" font-family="sans-serif" font-size="26.25" lengthAdjust="spacing" textLength="340.0067" x="1348.7796" y="3228.0359">same posting_id; equal totals</text></g><g class="message" data-participant-1="R" data-participant-2="DB"><polygon fill="#486579" points="1255.8316,3334.3213,1237.0816,3341.8213,1255.8316,3349.3213,1248.3316,3341.8213" style="stroke:#486579;stroke-width:1.875;"/><line style="stroke:#486579;stroke-width:2.625;" x1="1244.5816" x2="2288.6682" y1="3341.8213" y2="3341.8213"/><text fill="#000000" font-family="sans-serif" font-size="26.25" font-weight="bold" lengthAdjust="spacing" textLength="29.198" x="1282.0816" y="3317.3035">20</text><text fill="#000000" font-family="sans-serif" font-size="26.25" lengthAdjust="spacing" textLength="409.9768" x="1348.7796" y="3317.3035">INSERT receipt (unique invoice_id)</text></g><g class="message" data-participant-1="R" data-participant-2="DB"><polygon fill="#486579" points="1255.8316,3423.5889,1237.0816,3431.0889,1255.8316,3438.5889,1248.3316,3431.0889" style="stroke:#486579;stroke-width:1.875;"/><line style="stroke:#486579;stroke-width:2.625;" x1="1244.5816" x2="2288.6682" y1="3431.0889" y2="3431.0889"/><text fill="#000000" font-family="sans-serif" font-size="26.25" font-weight="bold" lengthAdjust="spacing" textLength="29.198" x="1282.0816" y="3406.571">21</text><text fill="#000000" font-family="sans-serif" font-size="26.25" lengthAdjust="spacing" textLength="374.9213" x="1348.7796" y="3406.571">COMMIT all settlement changes</text></g><g class="message" data-participant-1="UI" data-participant-2="API"><polygon fill="#486579" points="658.071,3565.3564,676.821,3572.8564,658.071,3580.3564,665.571,3572.8564" style="stroke:#486579;stroke-width:1.875;"/><line style="stroke:#486579;stroke-width:2.625;" x1="153.685" x2="669.321" y1="3572.8564" y2="3572.8564"/><text fill="#000000" font-family="sans-serif" font-size="26.25" font-weight="bold" lengthAdjust="spacing" textLength="29.198" x="181.81" y="3548.3386">22</text><text fill="#000000" font-family="sans-serif" font-size="26.25" lengthAdjust="spacing" textLength="313.6926" x="248.508" y="3548.3386">GET owned invoice receipt</text></g><g class="message" data-participant-1="API" data-participant-2="UI"><polygon fill="#486579" points="174.31,3654.624,155.56,3662.124,174.31,3669.624,166.81,3662.124" style="stroke:#486579;stroke-width:1.875;"/><line style="stroke:#486579;stroke-width:2.625;stroke-dasharray:3.75,3.75;" x1="163.06" x2="678.696" y1="3662.124" y2="3662.124"/><text fill="#000000" font-family="sans-serif" font-size="26.25" font-weight="bold" lengthAdjust="spacing" textLength="29.198" x="200.56" y="3637.6062">23</text><text fill="#000000" font-family="sans-serif" font-size="26.25" lengthAdjust="spacing" textLength="169.292" x="267.258" y="3637.6062">application/pdf</text></g><path d="M571.875,3695.874 L571.875,3857.124 A9.375,9.375 0 0 0 581.25,3866.499 L1560,3866.499 A9.375,9.375 0 0 0 1569.375,3857.124 L1569.375,3705.249 L1550.625,3686.499 L581.25,3686.499 A9.375,9.375 0 0 0 571.875,3695.874" fill="#FFF5DE" style="stroke:#C89139;stroke-width:0.9375;"/><path d="M1550.625,3686.499 L1550.625,3700.5615 A4.6875,4.6875 0 0 0 1555.3125,3705.249 L1569.375,3705.249 L1550.625,3686.499" fill="#FFF5DE" style="stroke:#C89139;stroke-width:0.9375;"/><text fill="#584021" font-family="sans-serif" font-size="26.25" lengthAdjust="spacing" textLength="806.8671" x="659.4017" y="3738.1238">Callback body is only a reference hint; provider status is authoritative.</text><text fill="#584021" font-family="sans-serif" font-size="26.25" lengthAdjust="spacing" textLength="669.7467" x="659.4017" y="3771.1414">Current gateway blocks unauthenticated callback ingress.</text><text fill="#584021" font-family="sans-serif" font-size="26.25" lengthAdjust="spacing" textLength="717.8119" x="659.4017" y="3804.1589">Poller queries status; it does not resubmit a lost MTN request.</text><text fill="#584021" font-family="sans-serif" font-size="26.25" lengthAdjust="spacing" textLength="602.5452" x="659.4017" y="3837.1765">Provider call is inside the reconciliation lock lifetime.</text><!--SRC=[bLN9Rjj84BtpAoevsR0iJIQOImG4S2Gw861RWXRuOa1eiajImsGtfnSvGf9_dogoIKjESXW1jfPQtwjNnNTA5sMG27wF5GxhK9M9Lxv4M0NbbT5GYsE5siCFc0OhSh8exVa7eIK8RofLW4DF8UoMYE2D3bMEDgc5zQfGjI3dzqjFLUZ3EdlI1oLW9po-YEDx48v-E_UzLLhe0k5cdZLsUa-ay28N3c7R6ZSoPzFqotdet9g3acX1I55xj4tyV3d_VO4NOv-Zp-EvXyN2w4ALk6dHFcct5nObR8Ckc9ScQ96iCxZ-p0t29vZFbYiYvs1KWQFlIluSHUwksnmkOR_UVRB7uXdCYqRhzgg6AwXHIwLtNOvaPqseOMAgIdd8SMii0duZL5gKa8rc2K3CEFr22RE7PRfOTUEvWg3Llm71uXOj4jmdtK2as6WHXEI0iJiWmCvRGT_Uv9tCxk-pLKBDTG28KFhT8YLnVkFDXe1Uz7K682eJj1z0PNAYy38HfOT5wqr52wJ9I2h2QQvxFcwY0KQWpOcaY6Y7bZbFi2G1fD_OZwLfB7XLeGad7RUvximEjaALmU8OdX7hZfL8yIiO2bbpnDz_VUXyBgBJPL8QKxEvDcNfuCFm7t3miYT8NPvnb53qm0FQ8tm4H_qmviVMoFCiH8C0wFN8VIuQ0iz5Tk7GEV8QTDin02KlAQR1JNquBtnm7V5DibC1VarNy4PoZGuRnyZF_wkhUKoBNWdBz2wTz0gxdIrWFP_UhD88TuMsKgpDrg4fk-YABj07gmc2uJLY93GQ6hGCTQc87UBKEC-pYNZd_JQS9sl5jqE_QUbu5TvbuyITz6TWdZvCiuUlZU6icOg4tgk1RMtDBkxs9hjBfwTXBG7eE_GiBvJZRZj-JR5SJoRfSdcxllirJSTZi-VdHFAhNVoPfXCuoQQqcNm1ekqFxRX0wuEIgBtgyzP2oTz4nJjH2BS7YRdYMs59kffEGa73KNpjHDKFPAC89acE1kkD5wNxSqvI5ggQLYXUcDZ9ffNJsw2MEXfOURhknLxe7NP5MWbsx_oV_zwgdg-ex777BiuNNDIjpaZderfk4sr8SeOMbjCC-14neKPoGJSvD_88oe7HvH74wm65FP4zXhgRS5n7ygIdtjvOHT_fe0wJIR2MeSHrWhmqnREZiyj-P6ZqBca2iI2HR6a5XycSpWWb9kgiGXSBZ85690rzfvwf6nToVY08A6a-SBzww0u2nNUjSMfkJ6cdsgTxl_MguG2u9IZL5lc43fbLJe__0G00]--></g></svg>