<svg xmlns="http://www.w3.org/2000/svg" xmlns:xlink="http://www.w3.org/1999/xlink" contentStyleType="text/css" data-diagram-type="SEQUENCE" height="2908.125px" preserveAspectRatio="none" style="width:1770px;height:2908px;background:#FFFFFF;" version="1.1" viewBox="0 0 1770 2908" width="1770px" zoomAndPan="magnify"><title>Leave | Self-service request, segregated decision and notification</title><defs/><g><text fill="#15324F" font-family="sans-serif" font-size="43.125" font-weight="bold" lengthAdjust="spacing" textLength="1342.1814" x="216.0722" y="87.8925">Leave | Self-service request, segregated decision and notification</text><rect fill="#F7FAFC" height="991.7285" rx="9.375" ry="9.375" style="stroke:#9AAEBE;stroke-width:2.8125;" width="1209.5782" x="547.8726" y="1022.6514"/><path d="M547.8726,1213.5791 L1757.4509,1213.5791 L1757.4509,1360.2393 A9.375,9.375 0 0 1 1748.0759,1369.6143 L557.2476,1369.6143 A9.375,9.375 0 0 1 547.8726,1360.2393 L547.8726,1213.5791" fill="#F7FAFC" style="stroke:none;stroke-width:1.875;"/><path d="M547.8726,1369.6143 L1757.4509,1369.6143 L1757.4509,2005.0049 A9.375,9.375 0 0 1 1748.0759,2014.3799 L557.2476,2014.3799 A9.375,9.375 0 0 1 547.8726,2005.0049 L547.8726,1369.6143" fill="#F7FAFC" style="stroke:none;stroke-width:1.875;"/><rect fill="#F7FAFC" height="462.4805" rx="9.375" ry="9.375" style="stroke:#9AAEBE;stroke-width:2.8125;" width="875.2863" x="566.6226" y="1449.5068"/><rect fill="#F7FAFC" height="190.9277" rx="9.375" ry="9.375" style="stroke:#9AAEBE;stroke-width:2.8125;" width="837.7863" x="585.3726" y="1618.667"/><g><title>Employee</title><rect fill="#000000" fill-opacity="0.00000" height="2350.6348" width="15" x="114.614" y="341.5283"/><line style="stroke:#9AAEBE;stroke-width:0.9375;stroke-dasharray:9.375,9.375;" x1="121.875" x2="121.875" y1="341.5283" y2="2692.1631"/></g><g><title>HR API</title><rect fill="#000000" fill-opacity="0.00000" height="2350.6348" width="15" x="668.5062" y="341.5283"/><line style="stroke:#9AAEBE;stroke-width:0.9375;stroke-dasharray:9.375,9.375;" x1="675.3726" x2="675.3726" y1="341.5283" y2="2692.1631"/></g><g><title>hr_db</title><rect fill="#000000" fill-opacity="0.00000" height="2350.6348" width="15" x="1342.7151" y="341.5283"/><line style="stroke:#9AAEBE;stroke-width:0.9375;stroke-dasharray:9.375,9.375;" x1="1348.5214" x2="1348.5214" y1="341.5283" y2="2692.1631"/></g><g><title>HR approver</title><rect fill="#000000" fill-opacity="0.00000" height="2350.6348" width="15" x="1573.4299" y="341.5283"/><line style="stroke:#9AAEBE;stroke-width:0.9375;stroke-dasharray:9.375,9.375;" x1="1580.6589" x2="1580.6589" y1="341.5283" y2="2692.1631"/></g><g class="participant participant-head" data-participant="E"><text fill="#000000" font-family="sans-serif" font-size="26.25" lengthAdjust="spacing" textLength="116.7279" x="58.125" y="287.7429">Employee</text><text fill="#000000" font-family="sans-serif" font-size="26.25" lengthAdjust="spacing" textLength="83.1464" x="74.9158" y="320.7605">staff UI</text><ellipse cx="122.114" cy="148.9307" fill="#E2E2F0" rx="15" ry="15" style="stroke:#181818;stroke-width:0.9375;"/><path d="M122.114,163.9307 L122.114,214.5557 M97.739,178.9307 L146.489,178.9307 M122.114,214.5557 L97.739,242.6807 M122.114,214.5557 L146.489,242.6807" fill="none" style="stroke:#181818;stroke-width:0.9375;"/></g><g class="participant participant-tail" data-participant="E"><text fill="#000000" font-family="sans-serif" font-size="26.25" lengthAdjust="spacing" textLength="116.7279" x="58.125" y="2732.5378">Employee</text><text fill="#000000" font-family="sans-serif" font-size="26.25" lengthAdjust="spacing" textLength="83.1464" x="74.9158" y="2765.5554">staff UI</text><ellipse cx="122.114" cy="2802.2607" fill="#E2E2F0" rx="15" ry="15" style="stroke:#181818;stroke-width:0.9375;"/><path d="M122.114,2817.2607 L122.114,2867.8857 M97.739,2832.2607 L146.489,2832.2607 M122.114,2867.8857 L97.739,2896.0107 M122.114,2867.8857 L146.489,2896.0107" fill="none" style="stroke:#181818;stroke-width:0.9375;"/></g><g class="participant participant-head" data-participant="HR"><rect fill="#EEF5F7" height="89.2676" rx="9.375" ry="9.375" style="stroke:#007F86;stroke-width:0.9375;" width="143.7671" x="604.1226" y="250.3857"/><text fill="#000000" font-family="sans-serif" font-size="26.25" lengthAdjust="spacing" textLength="87.5171" x="632.2476" y="305.7605">HR API</text></g><g class="participant participant-tail" data-participant="HR"><rect fill="#EEF5F7" height="89.2676" rx="9.375" ry="9.375" style="stroke:#007F86;stroke-width:0.9375;" width="143.7671" x="604.1226" y="2690.2881"/><text fill="#000000" font-family="sans-serif" font-size="26.25" lengthAdjust="spacing" textLength="87.5171" x="632.2476" y="2745.6628">HR API</text></g><g class="participant participant-head" data-participant="DB"><text fill="#000000" font-family="sans-serif" font-size="26.25" lengthAdjust="spacing" textLength="67.1375" x="1311.0214" y="320.7605">hr_db</text><path d="M1316.4651,211.0107 C1316.4651,192.2607 1350.2151,192.2607 1350.2151,192.2607 C1350.2151,192.2607 1383.9651,192.2607 1383.9651,211.0107 L1383.9651,259.7607 C1383.9651,278.5107 1350.2151,278.5107 1350.2151,278.5107 C1350.2151,278.5107 1316.4651,278.5107 1316.4651,259.7607 L1316.4651,211.0107" fill="#E8F2FA" style="stroke:#3D6E97;stroke-width:0.9375;"/><path d="M1316.4651,211.0107 C1316.4651,229.7607 1350.2151,229.7607 1350.2151,229.7607 C1350.2151,229.7607 1383.9651,229.7607 1383.9651,211.0107" fill="none" style="stroke:#3D6E97;stroke-width:0.9375;"/></g><g class="participant participant-tail" data-participant="DB"><text fill="#000000" font-family="sans-serif" font-size="26.25" lengthAdjust="spacing" textLength="67.1375" x="1311.0214" y="2732.5378">hr_db</text><path d="M1316.4651,2772.0557 C1316.4651,2753.3057 1350.2151,2753.3057 1350.2151,2753.3057 C1350.2151,2753.3057 1383.9651,2753.3057 1383.9651,2772.0557 L1383.9651,2820.8057 C1383.9651,2839.5557 1350.2151,2839.5557 1350.2151,2839.5557 C1350.2151,2839.5557 1316.4651,2839.5557 1316.4651,2820.8057 L1316.4651,2772.0557" fill="#E8F2FA" style="stroke:#3D6E97;stroke-width:0.9375;"/><path d="M1316.4651,2772.0557 C1316.4651,2790.8057 1350.2151,2790.8057 1350.2151,2790.8057 C1350.2151,2790.8057 1383.9651,2790.8057 1383.9651,2772.0557" fill="none" style="stroke:#3D6E97;stroke-width:0.9375;"/></g><g class="participant participant-head" data-participant="A"><text fill="#000000" font-family="sans-serif" font-size="26.25" lengthAdjust="spacing" textLength="148.8098" x="1500.9" y="287.7429">HR approver</text><text fill="#000000" font-family="sans-serif" font-size="26.25" lengthAdjust="spacing" textLength="274.292" x="1438.1589" y="320.7605">admin/super-admin API</text><ellipse cx="1580.9299" cy="148.9307" fill="#E2E2F0" rx="15" ry="15" style="stroke:#181818;stroke-width:0.9375;"/><path d="M1580.9299,163.9307 L1580.9299,214.5557 M1556.5549,178.9307 L1605.3049,178.9307 M1580.9299,214.5557 L1556.5549,242.6807 M1580.9299,214.5557 L1605.3049,242.6807" fill="none" style="stroke:#181818;stroke-width:0.9375;"/></g><g class="participant participant-tail" data-participant="A"><text fill="#000000" font-family="sans-serif" font-size="26.25" lengthAdjust="spacing" textLength="148.8098" x="1500.9" y="2732.5378">HR approver</text><text fill="#000000" font-family="sans-serif" font-size="26.25" lengthAdjust="spacing" textLength="274.292" x="1438.1589" y="2765.5554">admin/super-admin API</text><ellipse cx="1580.9299" cy="2802.2607" fill="#E2E2F0" rx="15" ry="15" style="stroke:#181818;stroke-width:0.9375;"/><path d="M1580.9299,2817.2607 L1580.9299,2867.8857 M1556.5549,2832.2607 L1605.3049,2832.2607 M1580.9299,2867.8857 L1556.5549,2896.0107 M1580.9299,2867.8857 L1605.3049,2896.0107" fill="none" style="stroke:#181818;stroke-width:0.9375;"/></g><g class="message" data-participant-1="E" data-participant-2="HR"><polygon fill="#486579" points="653.5062,427.0459,672.2562,434.5459,653.5062,442.0459,661.0062,434.5459" style="stroke:#486579;stroke-width:1.875;"/><line style="stroke:#486579;stroke-width:2.625;" x1="122.114" x2="664.7562" y1="434.5459" y2="434.5459"/><text fill="#000000" font-family="sans-serif" font-size="26.25" font-weight="bold" lengthAdjust="spacing" textLength="14.599" x="150.239" y="410.0281">1</text><text fill="#000000" font-family="sans-serif" font-size="26.25" lengthAdjust="spacing" textLength="426.7932" x="202.338" y="410.0281">POST leave/requests + bearer token</text></g><g class="message" data-participant-1="HR" data-participant-2="DB"><polygon fill="#486579" points="1327.7151,516.3135,1346.4651,523.8135,1327.7151,531.3135,1335.2151,523.8135" style="stroke:#486579;stroke-width:1.875;"/><line style="stroke:#486579;stroke-width:2.625;" x1="676.0062" x2="1338.9651" y1="523.8135" y2="523.8135"/><text fill="#000000" font-family="sans-serif" font-size="26.25" font-weight="bold" lengthAdjust="spacing" textLength="14.599" x="704.1312" y="499.2957">2</text><text fill="#000000" font-family="sans-serif" font-size="26.25" lengthAdjust="spacing" textLength="392.4939" x="756.2302" y="499.2957">Find employee by verified user_id</text></g><g class="message" data-participant-1="HR" data-participant-2="HR"><line style="stroke:#486579;stroke-width:2.625;" x1="676.0062" x2="754.7562" y1="613.0811" y2="613.0811"/><line style="stroke:#486579;stroke-width:2.625;" x1="754.7562" x2="754.7562" y1="613.0811" y2="637.4561"/><line style="stroke:#486579;stroke-width:2.625;" x1="677.8812" x2="754.7562" y1="637.4561" y2="637.4561"/><polygon fill="#486579" points="696.6312,629.9561,677.8812,637.4561,696.6312,644.9561,689.1312,637.4561" style="stroke:#486579;stroke-width:1.875;"/><text fill="#000000" font-family="sans-serif" font-size="26.25" font-weight="bold" lengthAdjust="spacing" textLength="14.599" x="704.1312" y="588.5632">3</text><text fill="#000000" font-family="sans-serif" font-size="26.25" lengthAdjust="spacing" textLength="242.2485" x="756.2302" y="588.5632">Validate end &gt;= start</text></g><g class="message" data-participant-1="HR" data-participant-2="DB"><polygon fill="#486579" points="1327.7151,719.2236,1346.4651,726.7236,1327.7151,734.2236,1335.2151,726.7236" style="stroke:#486579;stroke-width:1.875;"/><line style="stroke:#486579;stroke-width:2.625;" x1="676.0062" x2="1338.9651" y1="726.7236" y2="726.7236"/><text fill="#000000" font-family="sans-serif" font-size="26.25" font-weight="bold" lengthAdjust="spacing" textLength="14.599" x="704.1312" y="702.2058">4</text><text fill="#000000" font-family="sans-serif" font-size="26.25" lengthAdjust="spacing" textLength="494.5844" x="756.2302" y="702.2058">INSERT pending LeaveRequest; COMMIT</text></g><g class="message" data-participant-1="HR" data-participant-2="E"><polygon fill="#486579" points="142.739,808.4912,123.989,815.9912,142.739,823.4912,135.239,815.9912" style="stroke:#486579;stroke-width:1.875;"/><line style="stroke:#486579;stroke-width:2.625;stroke-dasharray:3.75,3.75;" x1="131.489" x2="674.1312" y1="815.9912" y2="815.9912"/><text fill="#000000" font-family="sans-serif" font-size="26.25" font-weight="bold" lengthAdjust="spacing" textLength="14.599" x="168.989" y="791.4734">5</text><text fill="#000000" font-family="sans-serif" font-size="26.25" lengthAdjust="spacing" textLength="239.3646" x="221.088" y="791.4734">201 pending request</text></g><g class="message" data-participant-1="A" data-participant-2="HR"><polygon fill="#486579" points="696.6312,897.7588,677.8812,905.2588,696.6312,912.7588,689.1312,905.2588" style="stroke:#486579;stroke-width:1.875;"/><line style="stroke:#486579;stroke-width:2.625;" x1="685.3812" x2="1579.0549" y1="905.2588" y2="905.2588"/><text fill="#000000" font-family="sans-serif" font-size="26.25" font-weight="bold" lengthAdjust="spacing" textLength="14.599" x="722.8812" y="880.741">6</text><text fill="#000000" font-family="sans-serif" font-size="26.25" lengthAdjust="spacing" textLength="398.3514" x="774.9802" y="880.741">POST leave/requests/{id}/decision</text></g><g class="message" data-participant-1="HR" data-participant-2="DB"><polygon fill="#486579" points="1327.7151,987.0264,1346.4651,994.5264,1327.7151,1002.0264,1335.2151,994.5264" style="stroke:#486579;stroke-width:1.875;"/><line style="stroke:#486579;stroke-width:2.625;" x1="676.0062" x2="1338.9651" y1="994.5264" y2="994.5264"/><text fill="#000000" font-family="sans-serif" font-size="26.25" font-weight="bold" lengthAdjust="spacing" textLength="14.599" x="704.1312" y="970.0085">7</text><text fill="#000000" font-family="sans-serif" font-size="26.25" lengthAdjust="spacing" textLength="384.5087" x="756.2302" y="970.0085">Fetch tenant request + employee</text></g><path d="M557.2476,1022.6514 L692.8812,1022.6514 L692.8812,1070.6689 L674.1312,1089.4189 L547.8726,1089.4189 L547.8726,1032.0264 A9.375,9.375 0 0 1 557.2476,1022.6514" fill="#F7FAFC" style="stroke:#9AAEBE;stroke-width:2.8125;"/><rect fill="none" height="991.7285" rx="9.375" ry="9.375" style="stroke:#9AAEBE;stroke-width:2.8125;" width="1209.5782" x="547.8726" y="1022.6514"/><text fill="#000000" font-family="sans-serif" font-size="26.25" font-weight="bold" lengthAdjust="spacing" textLength="30.6335" x="590.9976" y="1066.7761">alt</text><text fill="#000000" font-family="sans-serif" font-size="26.25" font-weight="bold" lengthAdjust="spacing" textLength="170.5737" x="736.0062" y="1068.6511">[Not pending]</text><g class="message" data-participant-1="HR" data-participant-2="A"><polygon fill="#486579" points="1558.4299,1191.0791,1577.1799,1198.5791,1558.4299,1206.0791,1565.9299,1198.5791" style="stroke:#486579;stroke-width:1.875;"/><line style="stroke:#486579;stroke-width:2.625;stroke-dasharray:3.75,3.75;" x1="676.0062" x2="1569.6799" y1="1198.5791" y2="1198.5791"/><text fill="#000000" font-family="sans-serif" font-size="26.25" font-weight="bold" lengthAdjust="spacing" textLength="14.599" x="704.1312" y="1174.0613">8</text><text fill="#000000" font-family="sans-serif" font-size="26.25" lengthAdjust="spacing" textLength="239.339" x="756.2302" y="1174.0613">409 Already decided</text></g><line style="stroke:#9AAEBE;stroke-width:1.875;stroke-dasharray:3.75,3.75;" x1="547.8726" x2="1757.4509" y1="1215.4541" y2="1215.4541"/><text fill="#000000" font-family="sans-serif" font-size="26.25" font-weight="bold" lengthAdjust="spacing" textLength="440.5334" x="572.2476" y="1257.7039">[Approver is the request employee]</text><g class="message" data-participant-1="HR" data-participant-2="A"><polygon fill="#486579" points="1558.4299,1347.1143,1577.1799,1354.6143,1558.4299,1362.1143,1565.9299,1354.6143" style="stroke:#486579;stroke-width:1.875;"/><line style="stroke:#486579;stroke-width:2.625;stroke-dasharray:3.75,3.75;" x1="676.0062" x2="1569.6799" y1="1354.6143" y2="1354.6143"/><text fill="#000000" font-family="sans-serif" font-size="26.25" font-weight="bold" lengthAdjust="spacing" textLength="14.599" x="704.1312" y="1330.0964">9</text><text fill="#000000" font-family="sans-serif" font-size="26.25" lengthAdjust="spacing" textLength="242.2229" x="756.2302" y="1330.0964">403 No self-approval</text></g><line style="stroke:#9AAEBE;stroke-width:1.875;stroke-dasharray:3.75,3.75;" x1="547.8726" x2="1757.4509" y1="1371.4893" y2="1371.4893"/><text fill="#000000" font-family="sans-serif" font-size="26.25" font-weight="bold" lengthAdjust="spacing" textLength="386.4697" x="572.2476" y="1413.739">[Authorized different approver]</text><path d="M575.9976,1449.5068 L880.8334,1449.5068 L880.8334,1497.5244 L862.0834,1516.2744 L566.6226,1516.2744 L566.6226,1458.8818 A9.375,9.375 0 0 1 575.9976,1449.5068" fill="#F7FAFC" style="stroke:#9AAEBE;stroke-width:2.8125;"/><rect fill="none" height="462.4805" rx="9.375" ry="9.375" style="stroke:#9AAEBE;stroke-width:2.8125;" width="875.2863" x="566.6226" y="1449.5068"/><text fill="#000000" font-family="sans-serif" font-size="26.25" font-weight="bold" lengthAdjust="spacing" textLength="199.8358" x="609.7476" y="1493.6316">One transaction</text><g class="message" data-participant-1="HR" data-participant-2="DB"><polygon fill="#486579" points="1327.7151,1583.042,1346.4651,1590.542,1327.7151,1598.042,1335.2151,1590.542" style="stroke:#486579;stroke-width:1.875;"/><line style="stroke:#486579;stroke-width:2.625;" x1="676.0062" x2="1338.9651" y1="1590.542" y2="1590.542"/><text fill="#000000" font-family="sans-serif" font-size="26.25" font-weight="bold" lengthAdjust="spacing" textLength="29.198" x="704.1312" y="1566.0242">10</text><text fill="#000000" font-family="sans-serif" font-size="26.25" lengthAdjust="spacing" textLength="401.9916" x="770.8292" y="1566.0242">Set approved/rejected + actor/time</text></g><path d="M594.7476,1618.667 L740.5582,1618.667 L740.5582,1666.6846 L721.8082,1685.4346 L585.3726,1685.4346 L585.3726,1628.042 A9.375,9.375 0 0 1 594.7476,1618.667" fill="#F7FAFC" style="stroke:#9AAEBE;stroke-width:2.8125;"/><rect fill="none" height="190.9277" rx="9.375" ry="9.375" style="stroke:#9AAEBE;stroke-width:2.8125;" width="837.7863" x="585.3726" y="1618.667"/><text fill="#000000" font-family="sans-serif" font-size="26.25" font-weight="bold" lengthAdjust="spacing" textLength="40.8105" x="628.4976" y="1662.7917">opt</text><text fill="#000000" font-family="sans-serif" font-size="26.25" font-weight="bold" lengthAdjust="spacing" textLength="440.5334" x="783.6832" y="1664.6667">[Employee has linked identity user]</text><g class="message" data-participant-1="HR" data-participant-2="DB"><polygon fill="#486579" points="1327.7151,1787.0947,1346.4651,1794.5947,1327.7151,1802.0947,1335.2151,1794.5947" style="stroke:#486579;stroke-width:1.875;"/><line style="stroke:#486579;stroke-width:2.625;" x1="676.0062" x2="1338.9651" y1="1794.5947" y2="1794.5947"/><text fill="#000000" font-family="sans-serif" font-size="26.25" font-weight="bold" lengthAdjust="spacing" textLength="29.198" x="704.1312" y="1770.0769">11</text><text fill="#000000" font-family="sans-serif" font-size="26.25" lengthAdjust="spacing" textLength="458.0804" x="770.8292" y="1770.0769">INSERT Notification(user_id, message)</text></g><g class="message" data-participant-1="HR" data-participant-2="DB"><polygon fill="#486579" points="1327.7151,1889.4873,1346.4651,1896.9873,1327.7151,1904.4873,1335.2151,1896.9873" style="stroke:#486579;stroke-width:1.875;"/><line style="stroke:#486579;stroke-width:2.625;" x1="676.0062" x2="1338.9651" y1="1896.9873" y2="1896.9873"/><text fill="#000000" font-family="sans-serif" font-size="26.25" font-weight="bold" lengthAdjust="spacing" textLength="29.198" x="704.1312" y="1872.4695">12</text><text fill="#000000" font-family="sans-serif" font-size="26.25" lengthAdjust="spacing" textLength="106.4355" x="770.8292" y="1872.4695">COMMIT</text></g><g class="message" data-participant-1="HR" data-participant-2="A"><polygon fill="#486579" points="1558.4299,1991.8799,1577.1799,1999.3799,1558.4299,2006.8799,1565.9299,1999.3799" style="stroke:#486579;stroke-width:1.875;"/><line style="stroke:#486579;stroke-width:2.625;stroke-dasharray:3.75,3.75;" x1="676.0062" x2="1569.6799" y1="1999.3799" y2="1999.3799"/><text fill="#000000" font-family="sans-serif" font-size="26.25" font-weight="bold" lengthAdjust="spacing" textLength="29.198" x="704.1312" y="1974.8621">13</text><text fill="#000000" font-family="sans-serif" font-size="26.25" lengthAdjust="spacing" textLength="215.9473" x="770.8292" y="1974.8621">Decision response</text></g><g class="message" data-participant-1="E" data-participant-2="HR"><polygon fill="#486579" points="653.5062,2094.2725,672.2562,2101.7725,653.5062,2109.2725,661.0062,2101.7725" style="stroke:#486579;stroke-width:1.875;"/><line style="stroke:#486579;stroke-width:2.625;" x1="122.114" x2="664.7562" y1="2101.7725" y2="2101.7725"/><text fill="#000000" font-family="sans-serif" font-size="26.25" font-weight="bold" lengthAdjust="spacing" textLength="29.198" x="150.239" y="2077.2546">14</text><text fill="#000000" font-family="sans-serif" font-size="26.25" lengthAdjust="spacing" textLength="264.0637" x="216.937" y="2077.2546">GET notifications/mine</text></g><g class="message" data-participant-1="HR" data-participant-2="E"><polygon fill="#486579" points="142.739,2183.54,123.989,2191.04,142.739,2198.54,135.239,2191.04" style="stroke:#486579;stroke-width:1.875;"/><line style="stroke:#486579;stroke-width:2.625;stroke-dasharray:3.75,3.75;" x1="131.489" x2="674.1312" y1="2191.04" y2="2191.04"/><text fill="#000000" font-family="sans-serif" font-size="26.25" font-weight="bold" lengthAdjust="spacing" textLength="29.198" x="168.989" y="2166.5222">15</text><text fill="#000000" font-family="sans-serif" font-size="26.25" lengthAdjust="spacing" textLength="323.8953" x="235.687" y="2166.5222">User-scoped in-app records</text></g><g class="message" data-participant-1="E" data-participant-2="HR"><polygon fill="#486579" points="653.5062,2272.8076,672.2562,2280.3076,653.5062,2287.8076,661.0062,2280.3076" style="stroke:#486579;stroke-width:1.875;"/><line style="stroke:#486579;stroke-width:2.625;" x1="122.114" x2="664.7562" y1="2280.3076" y2="2280.3076"/><text fill="#000000" font-family="sans-serif" font-size="26.25" font-weight="bold" lengthAdjust="spacing" textLength="29.198" x="150.239" y="2255.7898">16</text><text fill="#000000" font-family="sans-serif" font-size="26.25" lengthAdjust="spacing" textLength="322.4725" x="216.937" y="2255.7898">POST notifications/{id}/read</text></g><g class="message" data-participant-1="HR" data-participant-2="DB"><polygon fill="#486579" points="1327.7151,2362.0752,1346.4651,2369.5752,1327.7151,2377.0752,1335.2151,2369.5752" style="stroke:#486579;stroke-width:1.875;"/><line style="stroke:#486579;stroke-width:2.625;" x1="676.0062" x2="1338.9651" y1="2369.5752" y2="2369.5752"/><text fill="#000000" font-family="sans-serif" font-size="26.25" font-weight="bold" lengthAdjust="spacing" textLength="29.198" x="704.1312" y="2345.0574">17</text><text fill="#000000" font-family="sans-serif" font-size="26.25" lengthAdjust="spacing" textLength="532.511" x="770.8292" y="2345.0574">Check ownership; set read_at once; COMMIT</text></g><g class="message" data-participant-1="HR" data-participant-2="E"><polygon fill="#486579" points="142.739,2451.3428,123.989,2458.8428,142.739,2466.3428,135.239,2458.8428" style="stroke:#486579;stroke-width:1.875;"/><line style="stroke:#486579;stroke-width:2.625;stroke-dasharray:3.75,3.75;" x1="131.489" x2="674.1312" y1="2458.8428" y2="2458.8428"/><text fill="#000000" font-family="sans-serif" font-size="26.25" font-weight="bold" lengthAdjust="spacing" textLength="29.198" x="168.989" y="2434.325">18</text><text fill="#000000" font-family="sans-serif" font-size="26.25" lengthAdjust="spacing" textLength="232.0331" x="235.687" y="2434.325">Updated notification</text></g><path d="M9.375,2492.5928 L9.375,2653.8428 A9.375,9.375 0 0 0 18.75,2663.2178 L1685.625,2663.2178 A9.375,9.375 0 0 0 1695,2653.8428 L1695,2501.9678 L1676.25,2483.2178 L18.75,2483.2178 A9.375,9.375 0 0 0 9.375,2492.5928" fill="#FFF5DE" style="stroke:#C89139;stroke-width:0.9375;"/><path d="M1676.25,2483.2178 L1676.25,2497.2803 A4.6875,4.6875 0 0 0 1680.9375,2501.9678 L1695,2501.9678 L1676.25,2483.2178" fill="#FFF5DE" style="stroke:#C89139;stroke-width:0.9375;"/><text fill="#584021" font-family="sans-serif" font-size="26.25" lengthAdjust="spacing" textLength="484.3945" x="467.6106" y="2534.8425">Employee UI exists; decision UI does not.</text><text fill="#584021" font-family="sans-serif" font-size="26.25" lengthAdjust="spacing" textLength="665.3247" x="467.6106" y="2567.8601">Notifications are fetched, not email/SMS/push messages.</text><text fill="#584021" font-family="sans-serif" font-size="26.25" lengthAdjust="spacing" textLength="752.8546" x="467.6106" y="2600.8777">No timer-driven notification polling is configured in the current UI.</text><text fill="#584021" font-family="sans-serif" font-size="26.25" lengthAdjust="spacing" textLength="735.3973" x="467.6106" y="2633.8953">Concurrent decision serialization is a separate acceptance test.</text><!--SRC=[VLHDRnCn4BtxLmmzWTfqoyS5AYgbxK8ZaRRA1wTAbMFFPaqTszZUG0hyTyRUtJIf4BV4VlDstfitVg6Cq8r4Y3MkyDWrAysYYXhX2_8rmc-Oegu60VrQ2GIFtniCyGW2BZqkUKG94eKAoXhWHeAnKLLAy4W7Z3VHccQrGC-uYDR3GRboscuGxqo8lAfWFZe07g1aZlkeX7BSH3Yuci3mjhsvcZ398r_mW53xUxb8XvVdFHyXkNFUhj7V6IvNoXIXSUW7-VUMPSXA69mH6No0svlf37GILtHg0Xp20hb73z4-e6648_JbEQ4_AHA5NTUms01zYGIIx8OykLUo0sVghrmhwXO1gUZi8v167tVPHjVJSZ83H_VAB5kB9sqJft1nCnwFPXbE-9BWRqvURx5ThspuFo75BoN_5Fr0zdHW53L4DCdW3awoUsMCwmZNDlQVOm1T7qCgVdVo7eRQ8vURF6s9ag6cYGmxxq655A0jyPRs6SrR-WP5XmBLJethZgU9jVNgCQL9LHLwf2xxmHB9qjl6mOsXc7fk0Wq_oGDewJk9KzpMI7Ba6ugKpaF8KIcYMc6ki2v27qEeAHnQcGS2aYf3oT_amMRa7ditkkkTVB_i8d04Amo1B_5LBYC7dxVMZRQ_s_7aibyUZy5P4v0bo5DQFvUplPqA1UKQTqCofoO6GLYND9XaB749wsLu7lfzdXoLDDFTc5pKA1x0_Z3eGwtSAGqhnONBUnx16e7_YkdSoVmGxEq-_K78sIYFQFrwm-SZm9-Aedhwz6xGcRGOKlqnspKu02qbL2cwI2xJFIMBArrCnzF2DQ7kZG-f3jA8_K1wjKQprmmugtLQ8egfiAPIoyPdjt9eHUDptkQZOtP16hk_s_R8NqMB_TXI4GMd8tglqg9p8T15JiRGRWLg7zit4Fy2]--></g></svg>